<svg width="79" height="43" viewBox="0 0 79 43" fill="none" xmlns="http://www.w3.org/2000/svg">
<path d="M47.2427 40.8128C48.586 40.0764 49.4553 39.0689 50.0288 37.8397C49.6814 37.786 49.4217 37.9283 49.1557 37.9985C47.2672 38.5007 45.3866 39.0184 43.502 39.5258C42.6276 39.7619 42.5798 39.8114 42.8226 40.5096C42.8975 40.7261 42.7697 40.8004 42.5707 40.8901C41.5426 41.3573 40.4589 41.7285 39.3054 42.1565C39.3635 40.8994 39.7136 39.7949 40.7637 38.8926C41.1202 38.5853 41.6136 38.4646 42.1057 38.3512C43.6028 38.0067 45.1166 37.7046 46.5762 37.2673C47.337 37.0394 48.0694 36.7641 48.6416 36.2825C49.1363 35.8658 49.1234 35.7854 48.5757 35.4317C47.4352 34.6923 46.1861 34.0663 45.096 33.2733C44.011 32.4833 43.2308 31.5841 43.2825 30.3487C43.2876 30.2022 43.2579 30.0898 43.0474 30.0393C41.376 29.6381 39.7549 29.1359 38.254 28.3955C37.8058 29.9857 36.7505 30.6962 34.7523 30.7529C32.9233 30.8055 31.1072 30.922 29.3079 31.2644C29.2614 31.45 29.4642 31.5511 29.574 31.6748C30.5066 32.735 31.5244 33.7404 32.5371 34.75C33.0421 35.2523 33.6427 35.2131 34.0509 34.6541C34.4927 34.0508 34.5004 34.0374 35.2625 34.3839C36.3113 34.8593 37.3162 35.3843 38.2049 36.1206C37.3162 36.4619 36.4056 36.5826 35.4756 36.6197C34.7226 36.6496 33.9657 36.6156 33.2139 36.6393C32.5513 36.6599 32.0592 36.4475 31.6497 36.0494C30.1772 34.6201 28.697 33.1959 27.2219 31.7697C27.0049 31.5604 26.7788 31.3593 26.5735 31.1438C25.9612 30.5033 26.0826 29.9073 26.9752 29.536C28.1415 29.0493 29.3441 28.6203 30.5324 28.1676C31.6174 27.753 32.6972 27.3302 33.7952 26.9383C34.1517 26.8115 34.0845 26.7341 33.8714 26.5423C32.7541 25.5286 32.1341 24.3571 32.0514 22.9917C31.9326 21.022 32.6701 19.2369 33.7396 17.5044C34.0251 17.0424 34.4035 16.6 34.4139 16.0421C33.6957 17.2043 32.5616 17.9685 31.022 18.3666C32.4531 17.1322 33.0421 15.5368 33.9721 14.0766C32.891 14.9954 31.6161 15.5904 30.0338 15.741C30.8398 15.28 31.6122 14.7974 32.2142 14.1653C32.7993 13.5486 33.3922 12.9381 34.0767 12.2255C32.8626 12.6741 31.7414 12.9319 30.3955 12.8514C32.7231 12.0759 34.348 10.7735 35.7985 9.26991C34.7265 9.603 33.6492 9.75459 32.3485 9.49266C34.6296 9.00488 36.3449 7.94063 38.1842 7.05788C39.339 6.50409 40.5764 6.26484 41.912 6.57834C42.0308 6.60619 42.1238 6.62166 42.2272 6.56597C42.8407 6.23081 43.6583 6.15656 44.1388 5.62134C44.1156 6.34013 43.8469 6.95372 43.081 7.40541C43.4723 7.67663 43.7604 7.99734 43.8572 8.41088C44.0975 9.44316 44.8518 10.2486 45.694 11.0065C45.9678 11.253 46.0595 11.483 45.8684 11.7738C45.6901 12.0481 45.7508 12.3234 45.8309 12.6081C45.9433 12.9999 45.7211 13.2877 45.2342 13.3031C44.9603 13.3114 44.8131 13.5135 44.569 13.4918C44.1272 13.4527 43.843 13.2227 43.7268 12.903C43.4594 12.1574 42.8032 11.8119 41.903 11.6779C41.7389 11.6531 41.5839 11.5913 41.4263 11.5428C40.6358 11.2994 40.6358 11.2994 40.4266 11.9491C40.0107 13.2382 40.4485 14.4478 40.9807 15.6472C41.5503 16.9269 42.4351 18.085 43.2385 19.2741C43.5976 19.8031 43.9502 20.3332 44.0897 20.9344C44.1453 21.1767 44.3455 21.3098 44.6 21.4314C46.0737 22.1317 47.532 22.8566 48.7204 23.8611C50.1244 25.0491 51.0079 26.4268 50.9705 28.1036C50.964 28.3594 51.128 28.4738 51.3463 28.6079C54.002 30.2373 55.1787 32.9794 54.2371 35.443C53.5473 37.2436 52.0477 38.5667 50.1645 39.6413C49.2719 40.1497 48.3135 40.5663 47.2427 40.8128ZM50.9459 29.2803C50.5726 30.3002 49.755 31.1716 49.8648 32.2616C49.981 33.3991 50.9304 34.09 51.9302 34.7738C52.9545 32.9588 52.4817 30.261 50.9459 29.2803ZM30.7649 23.5641C31.0349 23.4599 31.093 23.3145 31.0555 23.0928C30.8747 21.9976 31.1059 20.9323 31.5192 19.8969C31.6872 19.4803 31.6174 19.3215 31.0697 19.1751C29.1917 18.6718 28.2242 17.6034 28.0912 16.0153C27.984 14.75 28.108 13.4857 28.0137 12.2224C27.9232 11.0045 27.2735 10.0372 26.0335 9.31838C24.9072 8.66353 23.5871 8.42016 22.2683 8.17472C18.8325 7.53638 15.3579 7.00941 12.0112 6.09469C8.47979 5.12944 5.14858 3.86925 2.28108 1.91503C1.43762 1.34166 0.724623 0.672375 0.0142059 0C0.865414 2.38734 2.65437 4.26113 5.01683 5.80388C7.905 7.689 11.2246 8.87184 14.8477 9.53184C15.5039 9.65147 16.16 9.77109 16.8162 9.89278C10.6653 9.77316 4.98841 8.55525 0.143373 5.24597C0.266081 5.68734 0.490831 5.99878 0.724623 6.30094C2.37408 8.41913 4.76754 9.8371 7.54591 10.8725C10.2687 11.8872 13.1556 12.3905 16.151 12.5153C16.5049 12.5287 16.8782 12.4823 17.2024 12.6503C12.2037 13.0525 7.41416 12.4977 2.88429 10.6992C7.03958 14.7551 12.6764 15.4749 18.7744 15.1707C16.8653 15.6894 14.8877 15.8359 12.8934 15.839C10.912 15.8421 8.93962 15.7101 6.99437 15.3656C10.7221 17.9768 15.1345 18.1077 19.7263 17.6395C16.988 18.5635 14.1231 18.8894 11.1522 18.7523C14.3401 20.2022 17.772 20.1661 21.2699 19.7711C19.3853 20.6178 17.3342 20.8632 15.0712 20.9385C16.5798 21.5377 18.0407 21.6965 19.5261 21.7109C20.996 21.7264 22.4362 21.5108 23.8571 21.2066C22.9697 21.7975 21.6457 22.1708 18.9578 22.5968C21.5075 23.2609 23.8584 23.0876 26.1692 22.2585C25.119 23.0361 23.9062 23.5331 22.5241 23.7909C24.5559 24.1962 26.3771 23.7848 28.0847 22.8721C27.5848 23.4166 26.9532 23.8312 26.164 24.1539C27.59 24.289 28.7189 23.9704 30.2586 23C30.154 23.3712 29.8142 23.5816 29.5469 23.8992C30.0377 23.8538 30.3955 23.7053 30.7649 23.5641ZM71.1192 15.3306C66.6229 16.1844 61.5789 15.8627 59.1661 15.1326C59.498 15.1326 59.7344 15.115 59.9643 15.1357C61.265 15.247 62.5619 15.213 63.8613 15.1305C66.7507 14.9521 69.4917 14.3901 71.9755 13.1536C73.2607 12.5153 74.3638 11.7233 75.3313 10.6693C70.5056 12.8308 63.1741 13.1082 60.7445 12.5843C61.0971 12.5586 61.318 12.5338 61.5389 12.5307C63.147 12.5101 64.7293 12.3399 66.2948 12.0574C69.9722 11.3933 73.2401 10.1207 75.8867 7.93238C76.8051 7.17234 77.5439 6.31744 78.0619 5.25009C73.1858 8.54288 67.5322 9.8206 61.3813 9.95569C62.5502 9.70097 63.7476 9.52566 64.9114 9.24722C69.1894 8.22834 72.9495 6.55153 75.8144 3.75169C76.9407 2.64825 77.7867 1.42313 78.222 0.0278438C77.9443 0.249562 77.708 0.491906 77.4548 0.724969C75.5935 2.43581 73.2685 3.64753 70.7523 4.64166C67.1899 6.05138 63.3885 6.87431 59.5252 7.54669C57.4895 7.90144 55.4254 8.15719 53.4492 8.70375C51.1926 9.32663 50.0417 10.5878 49.941 12.4792C49.8764 13.6981 49.9965 14.915 49.8712 16.136C49.6969 17.8179 48.5344 18.9616 46.4755 19.372C45.8774 19.4917 45.2665 19.5721 44.6 19.6804C44.91 20.0815 44.773 20.6116 45.3504 20.8694C46.9017 21.5634 48.3096 22.4101 49.6181 23.3692C50.1645 23.7683 50.7586 24.1117 51.6085 24.1096C51.0118 23.7291 50.3414 23.4682 49.8906 22.8308C50.7987 23.2763 51.593 23.6321 52.4895 23.8013C53.6029 24.0127 54.6982 24.0003 55.1929 23.7672C53.2632 23.264 52.4559 22.8308 51.7248 22.2008C52.9222 22.6741 54.0679 22.935 55.273 22.9824C56.4833 23.0309 57.6845 22.9948 58.8793 22.5668C56.2262 22.1574 54.6827 21.7099 54.117 21.1963C58.2232 21.8429 61.5905 21.7398 62.8137 20.9179C60.5908 20.8457 58.4479 20.5497 56.4755 19.6845C58.2245 19.9268 59.9721 20.0578 61.752 19.9341C63.5345 19.8093 65.2524 19.5525 66.9497 18.7471C65.3377 18.7378 63.891 18.7976 62.4508 18.5903C61.0093 18.381 59.5936 18.1118 58.2567 17.6261C64.5213 18.415 69.276 17.0136 71.1192 15.3306Z" fill="#FFD700"/>
</svg>
