<svg enable-background="new 0 0 512 512" viewBox="0 0 512 512" xmlns="http://www.w3.org/2000/svg"><g id="_x33_2_Refund"><g><path d="m407.919 201.905h-386.778c-7.303 0-13.223 5.92-13.223 13.223v219.513c0 7.303 5.92 13.223 13.223 13.223h386.778c7.303 0 13.223-5.92 13.223-13.223v-219.512c0-7.303-5.92-13.224-13.223-13.224z" fill="#7bdd9d"/><path d="m37.019 447.885h-15.869c-7.297 0-13.232-5.935-13.232-13.232v-219.536c0-7.298 5.935-13.232 13.232-13.232h15.87c-7.297 0-13.232 5.935-13.232 13.232v219.536c-.001 7.298 5.934 13.232 13.231 13.232z" fill="#fff" opacity=".5"/><path d="m421.142 215.117v219.536c0 7.298-5.935 13.232-13.232 13.232h-20.617c7.342 0 13.232-5.935 13.232-13.232v-219.536c0-7.298-5.891-13.232-13.232-13.232h20.617c7.298 0 13.232 5.934 13.232 13.232z" opacity=".15"/><path d="m36.539 376.422v-103.073c22.469 0 40.684-18.215 40.684-40.684h274.614c0 22.469 18.215 40.684 40.684 40.684v103.073c-22.469 0-40.684 18.215-40.684 40.684h-274.614c0-22.47-18.215-40.684-40.684-40.684z" fill="#7bdd9d"/><path d="m392.524 273.364v103.042c-22.464 0-40.707 18.244-40.707 40.707h-20.397c0-22.464 18.2-40.707 40.663-40.707v-103.042c-22.464 0-40.663-18.244-40.663-40.707h20.398c0 22.464 18.243 40.707 40.706 40.707z" opacity=".15"/><g fill="#efefef"><circle cx="331.244" cy="324.885" r="25.717"/><ellipse cx="214.53" cy="324.885" rx="54.95" ry="64.094"/><circle cx="97.816" cy="324.885" r="25.717"/></g><path d="m356.961 324.885c0 14.199-11.518 25.717-25.717 25.717-2.374 0-4.66-.307-6.814-.923 10.858-2.99 18.859-12.969 18.859-24.794s-8.001-21.804-18.859-24.794c2.154-.616 4.44-.923 6.814-.923 14.199.001 25.717 11.518 25.717 25.717z" opacity=".15"/><path d="m269.48 324.885c0 35.388-24.618 64.094-54.95 64.094-2.33 0-4.572-.176-6.814-.528 27.123-3.912 48.092-30.904 48.092-63.566s-20.969-59.654-48.092-63.566c2.242-.352 4.484-.528 6.814-.528 30.333 0 54.95 28.706 54.95 64.094z" opacity=".15"/><path d="m123.533 324.885c0 14.199-11.518 25.717-25.717 25.717-2.374 0-4.66-.307-6.814-.923 10.858-2.99 18.859-12.969 18.859-24.794s-8.001-21.804-18.859-24.794c2.154-.616 4.44-.923 6.814-.923 14.199.001 25.717 11.518 25.717 25.717z" opacity=".15"/><circle cx="422.869" cy="145.348" fill="#fb888b" r="81.213"/><path d="m430.502 226.715c-2.481.264-5.067.37-7.654.37-44.866 0-81.181-36.315-81.181-81.234 0-44.866 36.315-81.181 81.181-81.181 2.587 0 5.173.106 7.654.37-41.277 3.853-73.527 38.532-73.527 80.811 0 42.333 32.251 77.011 73.527 80.864z" fill="#fff" opacity=".5"/><path d="m504.082 145.323c0 44.919-36.315 81.233-81.234 81.233-3.167 0-6.281-.158-9.29-.58 40.485-4.593 71.891-38.902 71.891-80.653 0-41.699-31.406-76.008-71.891-80.601 3.009-.423 6.123-.581 9.29-.581 44.919.001 81.234 36.316 81.234 81.182z" opacity=".15"/><g><path d="m392.521 268.07c-19.523 0-35.405-15.881-35.405-35.405 0-2.915-2.363-5.278-5.278-5.278h-274.616c-2.915 0-5.278 2.363-5.278 5.278 0 19.523-15.881 35.405-35.405 35.405-2.915 0-5.278 2.363-5.278 5.278v103.075c0 2.915 2.363 5.278 5.278 5.278 19.523 0 35.405 15.881 35.405 35.405 0 2.915 2.363 5.278 5.278 5.278h274.616c2.915 0 5.278-2.363 5.278-5.278 0-19.523 15.881-35.405 35.405-35.405 2.915 0 5.278-2.363 5.278-5.278v-103.075c0-2.915-2.363-5.278-5.278-5.278zm-5.279 103.376c-21.134 2.428-37.954 19.247-40.381 40.381h-264.663c-2.428-21.134-19.247-37.954-40.381-40.381v-93.121c21.134-2.428 37.954-19.247 40.381-40.381h264.662c2.428 21.134 19.247 37.954 40.381 40.381v93.121z"/><path d="m214.531 255.523c-33.198 0-60.209 31.116-60.209 69.361 0 38.247 27.01 69.363 60.209 69.363s60.206-31.116 60.206-69.363c0-38.245-27.008-69.361-60.206-69.361zm0 128.168c-27.379 0-49.652-26.381-49.652-58.807s22.273-58.804 49.652-58.804c27.376 0 49.649 26.379 49.649 58.804s-22.273 58.807-49.649 58.807z"/><path d="m97.802 293.889c-17.093 0-30.997 13.905-30.997 30.995 0 17.093 13.905 30.997 30.997 30.997s30.997-13.905 30.997-30.997c0-17.09-13.905-30.995-30.997-30.995zm0 51.436c-11.271 0-20.441-9.17-20.441-20.441s9.17-20.438 20.441-20.438 20.441 9.168 20.441 20.438c-.001 11.271-9.171 20.441-20.441 20.441z"/><path d="m331.258 293.889c-17.093 0-30.997 13.905-30.997 30.995 0 17.093 13.905 30.997 30.997 30.997 17.093 0 30.997-13.905 30.997-30.997 0-17.09-13.904-30.995-30.997-30.995zm0 51.436c-11.271 0-20.441-9.17-20.441-20.441s9.17-20.438 20.441-20.438 20.441 9.168 20.441 20.438c-.001 11.271-9.171 20.441-20.441 20.441z"/><path d="m214.531 302.82c4.626 0 8.392 3.765 8.392 8.394 0 2.915 2.363 5.278 5.278 5.278s5.278-2.363 5.278-5.278c0-8.604-5.8-15.807-13.67-18.11v-1.674c0-2.915-2.363-5.278-5.278-5.278s-5.278 2.363-5.278 5.278v1.674c-7.87 2.303-13.673 9.505-13.673 18.11 0 10.485 8.466 18.948 18.951 18.948 4.626 0 8.392 3.765 8.392 8.394s-3.765 8.394-8.392 8.394c-4.629 0-8.394-3.765-8.394-8.394 0-2.915-2.363-5.278-5.278-5.278s-5.278 2.363-5.278 5.278c0 8.604 5.802 15.807 13.673 18.11v1.671c0 2.915 2.363 5.278 5.278 5.278s5.278-2.363 5.278-5.278v-1.671c7.87-2.303 13.67-9.505 13.67-18.11 0-10.448-8.5-18.951-18.948-18.951-4.651 0-8.394-3.741-8.394-8.392-.001-4.628 3.764-8.393 8.393-8.393z"/><path d="m509.361 145.348c0-47.691-38.802-86.492-86.492-86.492s-86.49 38.802-86.49 86.492c0 19.206 6.37 36.91 17.002 51.278h-332.239c-10.204 0-18.503 8.299-18.503 18.503v219.513c0 10.204 8.299 18.503 18.503 18.503h386.778c10.201 0 18.5-8.299 18.5-18.503v-202.982c46.037-1.883 82.941-39.82 82.941-86.312zm-101.441 297.24h-386.778c-4.381 0-7.946-3.564-7.946-7.946v-219.513c0-4.381 3.564-7.946 7.946-7.946h341.373c14.027 13.695 32.666 22.632 53.348 24.302v203.157c0 4.381-3.564 7.946-7.943 7.946zm14.949-221.304c-41.869 0-75.933-34.064-75.933-75.936s34.064-75.936 75.933-75.936c41.871 0 75.936 34.064 75.936 75.936s-34.065 75.936-75.936 75.936z"/><path d="m433.425 115.245h-13.258l6.542-6.936c2-2.121 1.902-5.461-.219-7.461-2.113-1.995-5.459-1.902-7.461.219l-14.936 15.835c-2.013 2.138-1.699 5.438 0 7.242l14.936 15.835c2.003 2.122 5.345 2.218 7.461.219 2.121-2 2.219-5.34.219-7.461l-6.542-6.936h13.258c11.642 0 21.113 9.472 21.113 21.113 0 11.737-9.448 21.113-21.113 21.113h-47.505c-2.915 0-5.278 2.363-5.278 5.278s2.363 5.278 5.278 5.278h47.505c17.511 0 31.67-14.128 31.67-31.67 0-17.462-14.206-31.668-31.67-31.668z"/></g></g></g><g id="Layer_1"/></svg>