<svg width="30" height="30" viewBox="0 0 30 30" fill="none" xmlns="http://www.w3.org/2000/svg">
<path d="M13.5897 0.0334263C5.73814 0.795145 -0.24428 7.551 0.00767314 15.385C0.083845 17.6643 0.576032 19.6389 1.57799 21.6487C3.03697 24.5901 5.369 26.9221 8.31627 28.3869C13.0917 30.7658 18.7401 30.4377 23.1932 27.5256C24.9335 26.3889 26.5858 24.7014 27.7108 22.9084C28.1444 22.2287 28.7889 20.9045 29.0819 20.1076C29.3807 19.299 29.7264 17.9045 29.8495 16.9963C29.9842 16.0764 30.0018 13.9436 29.8846 13.1291C29.5389 10.6975 28.7655 8.62327 27.4823 6.68967C26.9432 5.86936 26.3983 5.2014 25.6366 4.43382C23.2987 2.07249 20.3924 0.607645 17.0702 0.115458C16.3553 0.00998878 14.3397 -0.0368862 13.5897 0.0334263ZM16.5721 7.64475C19.1327 8.23655 21.1483 10.0178 22.0096 12.4553C22.3202 13.3459 22.4022 13.844 22.3963 14.9162C22.3963 15.7424 22.3729 15.9768 22.244 16.5334C21.5585 19.469 19.3143 21.6369 16.3495 22.2229C16.0038 22.2873 15.5526 22.3225 14.9608 22.3225C13.912 22.3225 13.1913 22.1877 12.2538 21.8186L11.6561 21.5783L9.76353 22.0295C8.72056 22.2756 7.8358 22.4748 7.80064 22.4748C7.75963 22.4748 7.68931 22.4162 7.64244 22.3401C7.56627 22.2229 7.59556 22.0295 7.95885 20.2658L8.36314 18.3205L8.12877 17.7522C7.73619 16.8147 7.58385 16.053 7.58385 14.9455C7.57799 13.6037 7.78306 12.7307 8.37486 11.5412C9.3651 9.55491 11.3221 8.06077 13.496 7.63303C14.2284 7.48655 14.2635 7.48069 15.1952 7.50413C15.7928 7.52171 16.2323 7.56272 16.5721 7.64475Z" fill="#274A3F"/>
<path d="M13.953 9.19748C12.0546 9.56076 10.3729 10.8967 9.65809 12.6135C9.30067 13.4748 9.2245 13.8557 9.2245 14.9162C9.21864 16.0647 9.31239 16.51 9.77528 17.4768L10.0565 18.0686L9.82801 19.1701C9.6991 19.7795 9.60535 20.301 9.61121 20.3362C9.62293 20.3772 10.0214 20.3127 10.7538 20.1369L11.8788 19.8791L12.453 20.1487C13.3964 20.5881 13.8534 20.6877 14.9901 20.6877C15.8163 20.6877 16.0272 20.6643 16.455 20.5529C18.16 20.0901 19.5194 18.9475 20.2753 17.342C20.6679 16.4924 20.7557 16.0822 20.7557 14.9455C20.7616 14.0783 20.744 13.885 20.6268 13.4514C20.0585 11.383 18.4999 9.84201 16.4081 9.27951C15.828 9.12717 14.5565 9.08615 13.953 9.19748ZM12.8163 11.4358C12.9511 11.5354 13.1972 12.0158 13.5311 12.8479C13.7245 13.3283 13.7128 13.3928 13.3847 13.8322C13.0917 14.2131 13.0975 14.4299 13.4139 14.8401C13.994 15.5842 15.4999 16.7912 15.8514 16.7912C16.0507 16.7912 16.203 16.6975 16.5546 16.3752C16.7186 16.217 16.9061 16.0881 16.9647 16.0881C17.0233 16.0881 17.4393 16.1936 17.8905 16.3225C18.5233 16.5041 18.7401 16.5862 18.8456 16.7033C19.0507 16.9436 19.0155 17.1897 18.7225 17.594C18.1893 18.3147 17.8026 18.5197 16.953 18.5197C16.2557 18.5197 15.7401 18.3791 15.0077 17.9924C14.3222 17.6291 13.8182 17.2541 13.121 16.5862C11.8612 15.3791 11.2401 14.2424 11.2401 13.1584C11.2401 12.5608 11.5975 11.9162 12.1425 11.5119C12.4061 11.3186 12.6171 11.2951 12.8163 11.4358Z" fill="#274A3F"/>
</svg>
