<svg width="23" height="30" viewBox="0 0 23 30" fill="none" xmlns="http://www.w3.org/2000/svg">
<path d="M9.89094 0.0822153C7.85188 0.334168 5.9593 1.12518 4.29524 2.42597C3.7093 2.883 2.68977 3.92597 2.25618 4.5119C0.140942 7.383 -0.50359 10.8224 0.392895 14.4963C1.34797 18.381 4.01985 22.8166 8.03352 27.176C9.12922 28.3654 10.6351 29.8185 10.8695 29.9182C11.1156 30.0178 11.3675 30.0178 11.6312 29.9064C11.8773 29.801 14.0804 27.6154 15.0531 26.508C18.7386 22.3185 21.1351 18.2521 22.0491 14.6369C22.9925 10.9221 22.348 7.37128 20.2093 4.50604C19.805 3.96112 18.8441 2.95917 18.2991 2.51972C15.9437 0.59784 12.8968 -0.286925 9.89094 0.0822153ZM11.8831 5.03339C12.6097 5.11542 13.2249 5.2912 13.846 5.58417C15.2406 6.24042 16.2425 7.24237 16.8929 8.62518C18.0179 11.0099 17.4906 13.8635 15.5863 15.7092C13.6995 17.5314 10.9573 18.006 8.62532 16.9045C7.91633 16.5646 7.43586 16.2365 6.89094 15.7092C4.98664 13.8635 4.4593 11.0099 5.5843 8.62518C6.61555 6.4455 8.73664 5.05682 11.1507 4.98065C11.2796 4.98065 11.6077 5.00409 11.8831 5.03339Z" fill="#274A3F"/>
</svg>
