<svg width="18" height="13" viewBox="0 0 18 13" fill="none" xmlns="http://www.w3.org/2000/svg">
<path d="M9.82746 0.062808C9.59372 0.211213 9.59372 0.203793 9.59372 1.85851V3.36112L9.50097 3.38338C9.45273 3.39451 9.14479 3.42419 8.82572 3.44645C7.5717 3.52807 6.09877 3.32772 4.89298 2.90477C3.40522 2.38906 2.2625 1.62848 1.06784 0.355908C0.722793 -0.00768471 0.463084 -0.0596266 0.188534 0.181532C-0.0118133 0.359618 -0.034074 0.489473 0.0364185 1.07196C0.192244 2.3297 0.481634 3.35369 0.986212 4.38882C1.40917 5.2607 1.91004 5.96192 2.56673 6.59635C3.85786 7.84667 5.52741 8.58869 7.70155 8.87808C8.03917 8.9226 9.1819 9.00423 9.53065 9.00794C9.59001 9.00794 9.59372 9.1044 9.59372 10.518C9.59372 11.9538 9.59743 12.0391 9.66792 12.1504C9.77181 12.3211 9.93505 12.3953 10.1651 12.3767C10.3506 12.3619 10.4322 12.3025 14.083 9.56075C18.2457 6.43682 17.9972 6.652 17.9972 6.18824C17.9935 5.9174 17.9118 5.72076 17.73 5.5538C17.6744 5.49815 15.99 4.22929 13.9902 2.7341L10.3543 0.014576L10.1502 0.00344563C9.99441 -0.00768471 9.92021 0.00715542 9.82746 0.062808Z" fill="#FFD700"/>
</svg>
