<svg width="243" height="40" viewBox="0 0 243 40" fill="none" xmlns="http://www.w3.org/2000/svg">
<path d="M0 0H222.659C233.704 0 242.658 8.954 242.658 19.9993C242.658 31.0446 233.704 39.9986 222.659 39.9986H0V0Z" fill="#8FBC8F"/>
<rect x="191.993" width="33.3322" height="39.9986" rx="16.6661" fill="#274A3F"/>
<path d="M196.203 0.116596C192.641 0.741573 189.946 3.50711 189.415 7.08511C189.298 7.86633 189.298 32.1311 189.415 32.9124C189.962 36.5607 192.766 39.3653 196.414 39.9121C197.195 40.0293 221.459 40.0293 222.24 39.9121C225.888 39.3653 228.693 36.5607 229.24 32.9124C229.357 32.1311 229.357 7.86633 229.24 7.08511C228.693 3.43679 225.888 0.632202 222.24 0.0853462C221.35 -0.0474586 196.969 -0.0162125 196.203 0.116596ZM202.054 9.26472C202.281 9.32722 202.593 9.49909 202.757 9.65533C203.07 9.93657 204.656 12.499 204.843 13.0224C205.062 13.6474 204.906 14.3192 204.382 14.9911C203.867 15.6473 203.757 15.9051 203.718 16.5692C203.656 17.6629 203.585 17.5691 207.671 21.6549C211.757 25.7407 211.663 25.6704 212.757 25.6079C213.421 25.5689 213.678 25.4595 214.335 24.9439C215.006 24.4205 215.678 24.2642 216.303 24.483C216.834 24.6783 219.389 26.2563 219.678 26.5688C220.014 26.9438 220.225 27.6157 220.154 28.1078C220.092 28.5687 219.522 29.639 219.131 30.0296C217.897 31.2405 215.194 31.1155 212.179 29.6937C204.156 25.9126 196.797 15.6083 198.789 10.9522C199.023 10.4131 199.375 10.0459 200 9.68658C201 9.11629 201.328 9.04598 202.054 9.26472Z" fill="#8FBC8F"/>
</svg>
