<svg height="512pt" viewBox="0 -12 512 512" width="512pt" xmlns="http://www.w3.org/2000/svg"><path d="m177.976562 401.292969h132.246094v39.863281h-132.246094zm0 0" fill="#838383"/><path d="m287.234375 401.292969h22.988281v39.863281h-22.988281zm0 0" fill="#676868"/><path d="m456.203125 401.292969h-424.207031c-13.40625 0-24.269532-10.867188-24.269532-24.269531v-345.261719c0-13.402344 10.863282-24.269531 24.269532-24.269531h424.207031c13.40625 0 24.269531 10.867187 24.269531 24.269531v345.261719c0 13.402343-10.863281 24.269531-24.269531 24.269531zm0 0" fill="#c9f0ff"/><path d="m480.476562 31.765625v345.257813c0 13.402343-10.863281 24.269531-24.269531 24.269531h-29.644531c13.402344 0 24.269531-10.867188 24.269531-24.269531v-345.257813c0-13.40625-10.867187-24.269531-24.269531-24.269531h29.644531c13.40625-.003906 24.269531 10.863281 24.269531 24.269531zm0 0" fill="#9ae7fd"/><path d="m480.472656 342.820312h-472.75v34.203126c0 13.402343 10.867188 24.269531 24.269532 24.269531h424.210937c13.402344 0 24.269531-10.867188 24.269531-24.269531zm0 0" fill="#9c9c9c"/><path d="m480.476562 342.820312v34.203126c0 13.402343-10.863281 24.269531-24.269531 24.269531h-29.644531c13.402344 0 24.269531-10.867188 24.269531-24.269531v-34.203126zm0 0" fill="#838383"/><path d="m481.015625 90.285156h-472.765625v-58.523437c0-13.40625 10.867188-24.269531 24.269531-24.269531h424.226563c13.40625 0 24.269531 10.863281 24.269531 24.269531zm0 0" fill="#9c9c9c"/><path d="m480.746094 31.753906v58.53125h-30.1875v-58.53125c0-13.394531-10.863282-24.261718-24.269532-24.261718h30.1875c13.40625 0 24.269532 10.867187 24.269532 24.261718zm0 0" fill="#838383"/><path d="m353.074219 480.257812h-217.949219c-2.628906 0-4.757812-2.132812-4.757812-4.757812v-15.417969c0-10.453125 8.472656-18.925781 18.929687-18.925781h189.605469c10.457031 0 18.929687 8.472656 18.929687 18.925781v15.417969c0 2.625-2.128906 4.757812-4.757812 4.757812zm0 0" fill="#9c9c9c"/><path d="m357.832031 460.078125v15.425781c0 2.625-2.132812 4.753906-4.757812 4.753906h-16.792969v-20.179687c0-10.445313-8.476562-18.921875-18.921875-18.921875h21.546875c10.453125 0 18.925781 8.472656 18.925781 18.921875zm0 0" fill="#838383"/><path d="m69.695312 48.890625c0 7.179687-5.820312 13-13 13-7.179687 0-13.003906-5.820313-13.003906-13s5.824219-13.003906 13.003906-13.003906c7.179688 0 13 5.824219 13 13.003906zm0 0" fill="#ef6161"/><path d="m119.914062 48.890625c0 7.179687-5.820312 13-13.003906 13-7.179687 0-13-5.820313-13-13s5.820313-13.003906 13-13.003906c7.183594 0 13.003906 5.824219 13.003906 13.003906zm0 0" fill="#f3cc50"/><path d="m170.128906 48.890625c0 7.179687-5.820312 13-13 13-7.183594 0-13.003906-5.820313-13.003906-13s5.820312-13.003906 13.003906-13.003906c7.179688 0 13 5.824219 13 13.003906zm0 0" fill="#baed6a"/><path d="m69.691406 48.894531c0 7.179688-5.8125 12.996094-12.992187 12.996094-3.476563 0-6.640625-1.363281-8.96875-3.59375 7.035156-.152344 12.695312-5.90625 12.695312-12.988281 0-3.707032-1.546875-7.042969-4.03125-9.40625.097657-.011719.207031-.011719.304688-.011719 7.179687 0 12.992187 5.816406 12.992187 13.003906zm0 0" fill="#ea4444"/><path d="m119.910156 48.894531c0 7.179688-5.8125 12.996094-13 12.996094-3.476562 0-6.632812-1.363281-8.972656-3.59375 7.046875-.152344 12.707031-5.90625 12.707031-12.988281 0-3.707032-1.546875-7.042969-4.03125-9.40625.097657-.011719.195313-.011719.296875-.011719 7.1875 0 13 5.816406 13 13.003906zm0 0" fill="#f7c22c"/><path d="m170.128906 48.894531c0 7.179688-5.824218 12.996094-13 12.996094-3.480468 0-6.632812-1.363281-8.972656-3.59375 7.042969-.152344 12.699219-5.90625 12.699219-12.988281 0-3.707032-1.550781-7.042969-4.035157-9.40625.101563-.011719.207032-.011719.308594-.011719 7.175782 0 13 5.816406 13 13.003906zm0 0" fill="#a3e72d"/><path d="m489.933594 304.808594h-211.195313c-8.050781 0-14.578125-6.527344-14.578125-14.578125v-149.957031c0-8.050782 6.527344-14.578126 14.578125-14.578126h211.195313c8.046875 0 14.574218 6.527344 14.574218 14.578126v149.957031c0 8.050781-6.527343 14.578125-14.574218 14.578125zm0 0" fill="#f5d573"/><path d="m504.507812 140.027344v150.449218c0 7.914063-6.636718 14.332032-14.824218 14.332032h-15.664063c8.191407 0 14.828125-6.417969 14.828125-14.332032v-150.449218c0-7.914063-6.636718-14.332032-14.828125-14.332032h15.664063c8.1875 0 14.824218 6.417969 14.824218 14.332032zm0 0" fill="#f3cc50"/><path d="m426.527344 206.144531c-9.25-13.847656-25.136719-22.210937-42.191406-22.210937-17.054688 0-32.945313 8.363281-42.195313 22.210937l-65.917969 98.664063h216.226563zm0 0" fill="#f7c22c"/><path d="m492.449219 304.808594h-21.070313l-65.921875-98.664063c-7.308593-10.941406-18.757812-18.457031-31.65625-21.128906 3.425781-.710937 6.957031-1.082031 10.535157-1.082031 17.050781 0 32.941406 8.363281 42.191406 22.210937zm0 0" fill="#eeb900"/><path d="m384.335938 125.695312h-107.121094l89.804687 90.523438c9.660157 9.011719 24.96875 9.011719 34.632813 0l89.804687-90.523438zm0 0" fill="#fbf0d1"/><path d="m491.457031 125.695312-89.808593 90.523438c-7.042969 6.566406-17.085938 8.347656-25.753907 5.339844 3.222657-1.117188 6.257813-2.894532 8.875-5.339844l89.804688-90.523438zm0 0" fill="#f9e8b2"/><path d="m216.5 253.886719c0-4.136719-3.355469-7.492188-7.492188-7.492188h-105.9375c-4.136718 0-7.492187 3.355469-7.492187 7.492188s3.355469 7.492187 7.492187 7.492187h105.9375c4.136719 0 7.492188-3.355468 7.492188-7.492187zm0 0"/><path d="m235.453125 278.933594h-87.933594c-4.136719 0-7.488281 3.351562-7.488281 7.488281s3.351562 7.492187 7.488281 7.492187h87.933594c4.136719 0 7.492187-3.355468 7.492187-7.492187s-3.355468-7.488281-7.492187-7.488281zm0 0"/><path d="m235.453125 215.371094h-48.3125c-4.140625 0-7.492187 3.355468-7.492187 7.492187s3.355468 7.492188 7.492187 7.492188h48.3125c4.136719 0 7.492187-3.355469 7.492187-7.492188s-3.355468-7.492187-7.492187-7.492187zm0 0"/><path d="m36.199219 48.890625c0 11.300781 9.195312 20.492187 20.496093 20.492187 11.296876 0 20.492188-9.191406 20.492188-20.492187s-9.191406-20.496094-20.492188-20.496094c-11.300781 0-20.496093 9.195313-20.496093 20.496094zm26.003906 0c0 3.039063-2.472656 5.511719-5.507813 5.511719-3.039062 0-5.511718-2.472656-5.511718-5.511719s2.472656-5.511719 5.511718-5.511719c3.035157 0 5.507813 2.472656 5.507813 5.511719zm0 0"/><path d="m86.417969 48.890625c0 11.300781 9.191406 20.492187 20.492187 20.492187 11.300782 0 20.496094-9.191406 20.496094-20.492187s-9.195312-20.496094-20.496094-20.496094c-11.300781 0-20.492187 9.195313-20.492187 20.496094zm26.003906 0c0 3.039063-2.472656 5.511719-5.511719 5.511719-3.039062 0-5.511718-2.472656-5.511718-5.511719s2.472656-5.511719 5.511718-5.511719c3.039063 0 5.511719 2.472656 5.511719 5.511719zm0 0"/><path d="m136.632812 48.890625c0 11.300781 9.191407 20.492187 20.496094 20.492187 11.300782 0 20.492188-9.191406 20.492188-20.492187s-9.191406-20.496094-20.492188-20.496094c-11.304687 0-20.496094 9.195313-20.496094 20.496094zm26.003907 0c0 3.039063-2.472657 5.511719-5.507813 5.511719-3.039062 0-5.511718-2.472656-5.511718-5.511719s2.472656-5.511719 5.511718-5.511719c3.035156 0 5.507813 2.472656 5.507813 5.511719zm0 0"/><path d="m493.476562 118.492188c-.648437-.179688-1.324218-.289063-2.019531-.289063 0 0-1.3125.003906-3.726562.003906v-86.445312c0-17.511719-14.246094-31.761719-31.761719-31.761719h-111.132812c-4.140626 0-7.492188 3.355469-7.492188 7.492188 0 4.136718 3.355469 7.488281 7.492188 7.488281h111.132812c9.253906 0 16.78125 7.527343 16.78125 16.78125v51.03125h-457.765625v-51.03125c0-9.25 7.527344-16.777344 16.777344-16.777344h279.113281c4.136719 0 7.492188-3.355469 7.492188-7.492187 0-4.136719-3.355469-7.492188-7.492188-7.492188h-279.113281c-17.515625 0-31.761719 14.25-31.761719 31.761719v345.261719c0 17.511718 14.246094 31.761718 31.761719 31.761718h138.722656v24.878906h-21.1875c-14.570313 0-26.421875 11.851563-26.421875 26.421876v15.414062c0 6.753906 5.496094 12.25 12.25 12.25h217.949219c6.753906 0 12.25-5.496094 12.25-12.25v-15.414062c0-14.570313-11.851563-26.421876-26.421875-26.421876h-21.1875v-24.878906h138.488281c17.515625 0 31.761719-14.25 31.761719-31.761718l-.234375-64.726563h4.71875c1.167969 0 2.289062-.285156 3.300781-.78125 9.351562-2.5625 16.25-11.128906 16.25-21.285156v-149.957031c0-10.960938-8.035156-20.078126-18.523438-21.78125zm-20.003906 14.695312-77.027344 77.644531c-6.707031 6.15625-17.515624 6.15625-24.222656 0l-77.027344-77.644531zm-123.132812 326.894531v12.683594h-212.480469v-12.683594c0-6.304687 5.128906-11.4375 11.4375-11.4375h189.605469c6.308594 0 11.4375 5.132813 11.4375 11.4375zm-47.609375-26.417969h-117.261719v-24.878906h117.261719zm170.019531-56.640624c0 9.25-7.527344 16.777343-16.78125 16.777343h-423.972656c-9.253906 0-16.78125-7.527343-16.78125-16.777343v-26.710938h457.535156zm0-41.695313h-457.765625v-237.550781h457.765625v20.4375c-52.425781.03125-197.027344.128906-197.558594.277344-10.488281 1.703124-18.519531 10.820312-18.519531 21.78125v21.707031c0 4.136719 3.351563 7.492187 7.488281 7.492187 4.140625 0 7.492188-3.355468 7.492188-7.492187v-21.707031c0-2.578126 1.386718-4.828126 3.449218-6.070313l63.542969 64.054687c-.957031 1.199219-1.875 2.4375-2.734375 3.726563l-62.253906 93.175781c-1.238281-1.277344-2.003906-3.015625-2.003906-4.929687v-94.289063c0-4.136718-3.355469-7.492187-7.492188-7.492187-4.136718 0-7.488281 3.355469-7.488281 7.492187v94.289063c0 7.585937 4.03125 14.777343 10.480469 18.769531 7.042968 4.359375 15.25 3.300781 23.199218 3.296875h71.375 86.253907 24.769531zm-182.511719-38.011719 58.132813-87.011718c.296875-.445313.613281-.875.933594-1.304688l12.394531 12.496094c.070312.070312.140625.136718.210937.203125 6.289063 5.863281 14.355469 8.796875 22.425782 8.796875 8.070312 0 16.140624-2.933594 22.425781-8.796875.070312-.066407.140625-.132813.210937-.203125l12.40625-12.503906c.3125.433593.625.867187.921875 1.316406l58.132813 87.007812zm206.777344-7.085937c0 1.914062-.765625 3.652343-2.003906 4.929687l-62.253907-93.175781c-.859374-1.289063-1.777343-2.527344-2.734374-3.726563l63.542968-64.054687c2.0625 1.242187 3.449219 3.492187 3.449219 6.070313zm0 0"/></svg>