<svg id="Layer_1" enable-background="new 0 0 512 512" viewBox="0 0 512 512" xmlns="http://www.w3.org/2000/svg"><g clip-rule="evenodd" fill-rule="evenodd"><path d="m148.3 466.08h19.16 11.16 32.68c10.57 0 19.24-8.64 19.24-19.22 0-10.57-8.67-19.24-19.24-19.24 10.57 0 19.24-8.64 19.24-19.22 0-10.57-8.67-19.24-19.24-19.24 10.57 0 19.24-8.64 19.24-19.22 0-10.57-8.67-19.24-19.24-19.24 10.57 0 19.24-8.64 19.24-19.22 0-10.57-8.67-19.24-19.24-19.24-18.4 0-36.8 0-55.19 0 3.01-11.16 16.41-37.85 16.5-58.26-.03-29.93-43.63-28.15-44.77-11.16-1.02 40.24-49.7 94.03-78.03 94.03h-10.06v105.77h23.04c54.82.01 46.7 23.46 85.51 23.46z" fill="#fbbd80"/><path d="m77.78 325.03c-9.93 7.33-19.8 11.83-27.98 11.83h-10.05v105.77h23.04c5.61 0 10.57.26 14.98.7v-118.3z" fill="#e2aa73"/><path d="m8.59 460.18h44.62c4.44 0 8.06-3.65 8.06-8.09v-127.12c0-4.44-3.62-8.06-8.06-8.06h-44.62c-4.44 0-8.09 3.62-8.09 8.06v127.12c.01 4.44 3.66 8.09 8.09 8.09z" fill="#0593fc"/><path d="m363.7 466.08h-19.13-11.16-32.68c-10.57 0-19.24-8.64-19.24-19.22 0-10.57 8.67-19.24 19.24-19.24-10.57 0-19.24-8.64-19.24-19.22 0-10.57 8.67-19.24 19.24-19.24-10.57 0-19.24-8.64-19.24-19.22 0-10.57 8.67-19.24 19.24-19.24-10.57 0-19.24-8.64-19.24-19.22 0-10.57 8.67-19.24 19.24-19.24h55.16c-2.98-11.16-16.38-37.85-16.47-58.26.03-29.93 43.63-28.15 44.74-11.16 1.02 40.24 49.73 94.03 78.06 94.03h10.05v105.77h-23.04c-54.81.01-46.69 23.46-85.53 23.46z" fill="#fbbd80"/><path d="m434.25 325.03c9.93 7.33 19.8 11.83 27.98 11.83h10.05v105.77h-23.04c-5.61 0-10.57.26-14.98.7v-118.3z" fill="#e2aa73"/><path d="m503.43 460.18h-44.62c-4.44 0-8.09-3.65-8.09-8.09v-127.12c0-4.44 3.65-8.06 8.09-8.06h44.62c4.44 0 8.06 3.62 8.06 8.06v127.12c0 4.44-3.62 8.09-8.06 8.09z" fill="#0593fc"/><path d="m317.47 71.37c-33.93-33.93-88.98-33.93-122.91 0-33.96 33.96-33.96 88.98 0 122.94 10.89 10.89 23.98 18.31 37.82 22.19 2.04.58 3.53 1.93 4.32 3.88l13.23 33.03c1.02 2.54 3.36 4.12 6.07 4.12 2.75 0 5.08-1.58 6.1-4.12l13.23-33.03c.79-1.96 2.28-3.3 4.32-3.88 13.84-3.88 26.92-11.3 37.82-22.19 33.94-33.96 33.94-88.97 0-122.94z" fill="#e2e7f0"/><path d="m247.47 179.72h17.05c2.8 0 5.11-2.28 5.11-5.08v-28.15h28.15c2.8 0 5.08-2.31 5.08-5.11v-17.05c0-2.8-2.28-5.08-5.08-5.08h-28.15v-28.16c0-2.8-2.31-5.11-5.11-5.11h-17.05c-2.8 0-5.08 2.31-5.08 5.11v28.15h-28.15c-2.8 0-5.08 2.28-5.08 5.08v17.05c0 2.8 2.28 5.11 5.08 5.11h28.15v28.15c0 2.81 2.28 5.09 5.08 5.09z" fill="#70da40"/><path d="m88.41 191.13c5.9-14.48 17.46-26.05 31.92-31.92-14.46-5.9-26.02-17.46-31.92-31.92-5.87 14.46-17.43 26.02-31.89 31.92 14.45 5.87 26.02 17.44 31.89 31.92z" fill="#0cf"/><path d="m423.59 191.13c5.9-14.48 17.46-26.05 31.92-31.92-14.46-5.9-26.02-17.46-31.92-31.92-5.87 14.46-17.43 26.02-31.92 31.92 14.49 5.87 26.05 17.44 31.92 31.92z" fill="#0cf"/><path d="m205.42 194.32c-33.93-33.96-33.93-88.98 0-122.94 15.59-15.57 35.63-24 56.04-25.26-24.03-1.52-48.56 6.92-66.9 25.26-33.96 33.96-33.96 88.98 0 122.94 10.89 10.89 23.98 18.31 37.82 22.19 2.04.58 3.53 1.93 4.32 3.88l13.23 33.03c1.02 2.54 3.36 4.12 6.07 4.12 2.28 0 4.26-1.05 5.46-2.86-.26-.38-.47-.82-.67-1.26l-13.2-33.03c-.79-1.96-2.31-3.3-4.32-3.88-13.87-3.88-26.93-11.3-37.85-22.19z" fill="#cbd0d8"/><g fill="#00b8e6"><path d="m92.55 182.9c-6.42-10.6-16.15-18.95-27.77-23.68 11.62-4.73 21.35-13.11 27.77-23.68-1.58-2.63-2.98-5.37-4.15-8.24-5.87 14.46-17.43 26.02-31.89 31.92 14.46 5.87 26.02 17.43 31.89 31.92 1.17-2.87 2.58-5.64 4.15-8.24z"/><path d="m427.74 182.9c-6.42-10.6-16.18-18.95-27.77-23.68 11.59-4.73 21.35-13.11 27.77-23.68-1.58-2.63-2.98-5.37-4.15-8.24-5.87 14.46-17.43 26.02-31.92 31.92 14.48 5.87 26.05 17.43 31.92 31.92 1.17-2.87 2.57-5.64 4.15-8.24z"/></g></g></svg>