<?xml version="1.0" encoding="UTF-8"?>
<svg xmlns="http://www.w3.org/2000/svg" xmlns:xlink="http://www.w3.org/1999/xlink" version="1.1" id="Layer_1" x="0px" y="0px" viewBox="0 0 24 24" style="enable-background:new 0 0 24 24;" xml:space="preserve" width="512" height="512">
<title>Artboard 2</title>
<g>
	<path d="M22.839,11.613h-3.484V4.629c0-0.195-0.078-0.383-0.216-0.521l-3.892-3.892C15.109,0.078,14.921,0,14.726,0H0.519   C0.232,0,0,0.232,0,0.519v22.962C0,23.768,0.232,24,0.519,24h18.317c0.287,0,0.519-0.232,0.519-0.519v-1.8h3.484   c0.642-0.001,1.162-0.521,1.161-1.163c0-0.001,0-0.001,0-0.002v-7.742C23.999,12.133,23.48,11.614,22.839,11.613z M15.1,1.159   l3.1,3.1h-3.1V1.159z M0.774,23.226V0.774h13.552v3.871c0,0.213,0.172,0.385,0.385,0.385h3.87v6.583h-8.129   c-0.641,0.001-1.161,0.52-1.162,1.161v7.742c0.001,0.641,0.521,1.161,1.162,1.161h8.129l0.004,1.549H0.774z M22.843,20.903H10.452   c-0.214,0-0.387-0.173-0.387-0.387v-4.61h13.161l0.004,4.61C23.23,20.73,23.057,20.903,22.843,20.903z M10.065,15.131v-0.774   h13.161l0.004,0.774H10.065z M10.065,13.583v-0.809c0-0.214,0.173-0.387,0.387-0.387h12.387c0.214,0.001,0.386,0.173,0.387,0.387   l0.004,0.809H10.065z"/>
	<path d="M16.779,19.357h-5.794c-0.213,0-0.385,0.172-0.385,0.385s0.172,0.385,0.385,0.385h5.794c0.213,0,0.385-0.172,0.385-0.385   S16.992,19.357,16.779,19.357z"/>
	<path d="M11.021,18.578c0.013,0.001,0.026,0.001,0.039,0H12c0.212,0.011,0.393-0.153,0.404-0.365   c0.011-0.212-0.153-0.393-0.365-0.404c-0.013-0.001-0.026-0.001-0.039,0h-0.94c-0.212-0.011-0.393,0.153-0.404,0.365   C10.645,18.386,10.808,18.567,11.021,18.578z"/>
	<path d="M13.373,18.578c0.013,0.001,0.026,0.001,0.039,0h0.941c0.212-0.011,0.376-0.192,0.365-0.404   c-0.01-0.197-0.168-0.355-0.365-0.365h-0.941c-0.212-0.011-0.393,0.153-0.404,0.365S13.16,18.567,13.373,18.578z"/>
	<path d="M15.726,18.578c0.013,0.001,0.026,0.001,0.039,0h0.94c0.212,0.011,0.393-0.153,0.404-0.365   c0.011-0.212-0.153-0.393-0.365-0.404c-0.013-0.001-0.026-0.001-0.039,0h-0.94c-0.212-0.011-0.393,0.153-0.404,0.365   C15.35,18.386,15.513,18.567,15.726,18.578z"/>
	<path d="M10.937,10.542c0.013,0.001,0.026,0.001,0.039,0h6.694c0.212,0.011,0.393-0.153,0.404-0.365   c0.011-0.212-0.153-0.393-0.365-0.404c-0.013-0.001-0.026-0.001-0.039,0h-6.694c-0.212-0.011-0.393,0.153-0.404,0.365   C10.561,10.35,10.724,10.531,10.937,10.542z"/>
	<path d="M10.976,6.874h6.694c0.213,0,0.385-0.172,0.385-0.385c0-0.213-0.172-0.385-0.385-0.385h-6.694   c-0.213,0-0.385,0.172-0.385,0.385C10.591,6.702,10.763,6.874,10.976,6.874z"/>
	<path d="M10.976,8.708h6.694c0.213,0,0.385-0.172,0.385-0.385c0-0.213-0.172-0.385-0.385-0.385c0,0,0,0,0,0h-6.694   c-0.213,0-0.385,0.172-0.385,0.385C10.591,8.536,10.763,8.708,10.976,8.708z"/>
	<path d="M8.379,11.228h-6.6c-0.213,0-0.385,0.172-0.385,0.385c0,0.213,0.172,0.385,0.385,0.385c0,0,0.001,0,0.001,0h6.6   c0.213,0,0.385-0.172,0.385-0.385C8.764,11.4,8.592,11.228,8.379,11.228z"/>
	<path d="M8.379,12.776h-6.6c-0.213,0-0.385,0.173-0.385,0.385c0,0.212,0.172,0.384,0.385,0.385h6.6   c0.213,0,0.385-0.172,0.385-0.385S8.592,12.776,8.379,12.776z"/>
	<path d="M6.767,15.1c0.213,0,0.385-0.172,0.385-0.385c0-0.213-0.172-0.385-0.385-0.385h-4.99c-0.213,0-0.385,0.172-0.385,0.385   c0,0.213,0.172,0.385,0.385,0.385H6.767z"/>
	<path d="M5.62,9.947c2.346-0.001,4.247-1.902,4.246-4.248C9.865,3.353,7.964,1.452,5.618,1.453C3.273,1.454,1.372,3.355,1.372,5.7   C1.375,8.045,3.275,9.945,5.62,9.947z M5.62,2.225c1.919,0,3.475,1.556,3.475,3.475S7.539,9.175,5.62,9.175S2.145,7.619,2.145,5.7   C2.147,3.782,3.702,2.227,5.62,2.225z"/>
	<path d="M4.857,6.623C4.855,6.409,4.68,6.238,4.466,6.24S4.081,6.416,4.083,6.63C4.125,7.269,4.601,7.795,5.232,7.9v0.389   c0.011,0.214,0.193,0.379,0.407,0.368c0.199-0.01,0.358-0.169,0.368-0.368V7.9c0.634-0.106,1.11-0.636,1.149-1.277   C7.115,5.983,6.634,5.458,6,5.36V4.323c0.206,0.062,0.355,0.241,0.378,0.454C6.38,4.991,6.555,5.162,6.768,5.161   C6.982,5.159,7.154,4.984,7.152,4.77C7.112,4.132,6.637,3.606,6.007,3.5V3.11C5.996,2.896,5.814,2.731,5.6,2.742   C5.401,2.752,5.242,2.911,5.232,3.11V3.5C4.598,3.606,4.121,4.135,4.083,4.777c0.04,0.639,0.519,1.164,1.152,1.263v1.037   C5.029,7.015,4.88,6.836,4.857,6.623z M6,6.171C6.205,6.232,6.354,6.41,6.378,6.623C6.352,6.835,6.204,7.012,6,7.075V6.171z    M4.857,4.773c0.025-0.212,0.174-0.389,0.378-0.45v0.9C5.032,5.16,4.884,4.984,4.857,4.773z"/>
	<path d="M22.08,17.804c0,0-0.001,0-0.001,0h-2.352c-0.215,0-0.39,0.175-0.39,0.39v1.548c0,0.215,0.175,0.39,0.39,0.39h2.352   c0.215,0.001,0.39-0.174,0.391-0.389c0,0,0-0.001,0-0.001v-1.548C22.47,17.979,22.295,17.804,22.08,17.804z M21.689,19.353h-1.572   v-0.77h1.572V19.353z"/>
	<path d="M7.801,15.954L6.78,17.16c-0.552-0.49-1.271-0.798-2.066-0.798c-1.724,0-3.127,1.402-3.127,3.127s1.403,3.128,3.127,3.128   c1.725,0,3.127-1.403,3.127-3.128c0-0.65-0.2-1.253-0.54-1.753l1.087-1.285c0.137-0.163,0.117-0.405-0.045-0.543   C8.181,15.77,7.938,15.792,7.801,15.954z M4.714,21.848c-1.3,0-2.357-1.058-2.357-2.358c0-1.3,1.058-2.357,2.357-2.357   c0.606,0,1.153,0.236,1.571,0.613l-1.656,1.958l-0.668-0.668c-0.15-0.15-0.395-0.15-0.545,0c-0.15,0.15-0.15,0.395,0,0.545   l0.964,0.964c0.073,0.072,0.17,0.112,0.272,0.112c0.005,0,0.011,0,0.016,0c0.107-0.005,0.208-0.054,0.278-0.136l1.825-2.157   c0.185,0.336,0.3,0.717,0.3,1.127C7.072,20.791,6.014,21.848,4.714,21.848z"/>
</g>
</svg>
