<svg id="Layer_1" viewBox="0 0 512 512" xmlns="http://www.w3.org/2000/svg" data-name="Layer 1"><path d="m317.584 317.384c63.241 0 114.8-51.59 114.8-114.8s-51.559-114.778-114.8-114.778c-63.212 0-114.775 51.563-114.775 114.775s51.563 114.8 114.775 114.8z" fill="#fb4455" fill-rule="evenodd"/><path d="m317.584 280.789a78.208 78.208 0 1 0 -78.208-78.208 78.344 78.344 0 0 0 78.208 78.208z" fill="#d5e3f2" fill-rule="evenodd"/><path d="m317.584 240.594a38.013 38.013 0 1 0 -37.984-38.013 38.071 38.071 0 0 0 37.984 38.013z" fill="#fb4455" fill-rule="evenodd"/><path d="m458.211 99.854-35.404-2.495-2.58-35.49 46.771-46.771 2.608 35.489 35.405 2.495z" fill="#fea832" fill-rule="evenodd"/><path d="m163.493 268.316h272.834v160.016h-272.834z" fill="#2eb851"/><g fill-rule="evenodd"><path d="m208.507 295.019h182.806a19.8 19.8 0 0 0 19.787 19.786v67.039a19.78 19.78 0 0 0 -19.787 19.756h-182.806a19.761 19.761 0 0 0 -19.785-19.758v-67.037a19.786 19.786 0 0 0 19.785-19.786z" fill="#4dd659"/><path d="m220.158 295.019a256.819 256.819 0 0 1 25.511 46.261v.029h-19.077a7 7 0 0 0 0 14h24.18c4.762 15.052 7.342 30.756 6.293 46.29h-48.558a19.761 19.761 0 0 0 -19.785-19.758v-67.036a19.786 19.786 0 0 0 19.785-19.786z" fill="#3dc448"/><path d="m200.088 268.316c7.058 8.618 13.805 17.547 20.07 26.7h-11.651a19.786 19.786 0 0 1 -19.785 19.786v67.039a19.761 19.761 0 0 1 19.785 19.759h48.558a92.139 92.139 0 0 1 -5.613 26.305 2.438 2.438 0 0 1 -.142.425h-87.817v-160.014z" fill="#1ca63e"/><path d="m155.272 233.337c341.348 340.016-397.077 339.846-55.757 0 4.847-40.7-33.7-25.058-24.917-84.529 1.3-8.7 32.117 26.957 39.345 12.926 4.366-8.447 8.618-14.6 13.437-24.548 4.847 9.949 9.1 16.1 13.464 24.548 7.229 14.031 38.041-21.629 39.317-12.926 8.815 59.471-29.736 43.824-24.889 84.529z" fill="#ac611d"/><path d="m86.7 214.09h81.383a14.881 14.881 0 0 1 14.826 14.853 14.875 14.875 0 0 1 -14.826 14.826h-81.383a14.9 14.9 0 0 1 -14.853-14.826 14.9 14.9 0 0 1 14.853-14.853z" fill="#ffd23b"/><path d="m175.965 409.34c0-9.382 25.257-17.008 56.41-17.008s56.41 7.626 56.41 17.008v70.56c0 9.411-25.257 17.007-56.41 17.007s-56.41-7.6-56.41-17.007z" fill="#fea832"/><path d="m232.375 426.348c31.068 0 56.41-7.625 56.41-17.008 0-9.354-25.342-17.008-56.41-17.008s-56.41 7.654-56.41 17.008c0 9.383 25.342 17.008 56.41 17.008z" fill="#fea832"/><path d="m288.785 409.34v34.668c0 9.411-25.257 17.008-56.41 17.008s-56.41-7.6-56.41-17.008v-34.668c0 9.411 25.257 17.008 56.41 17.008s56.41-7.6 56.41-17.008z" fill="#ffd23b"/><path d="m134.041 488.172c-94.9-3.629-184.337-85.1-31.521-244.4h-13.238c-159.9 166.677-54.538 248.173 44.759 244.4z" fill="#9c5717"/><path d="m74.6 148.808c-6.944 47.14 15.79 47.083 23.131 65.282h13.21c-7.059-17.518-28.432-18.142-23.755-60.265-6.69-4.79-12.047-8.532-12.586-5.017z" fill="#9c5717"/><path d="m127.38 137.186c-4.819 9.949-9.071 16.1-13.437 24.548-.141.255-.255.482-.4.709 5.867 3.061 11.112 4.11 13.606-.709 2.268-4.394 4.535-8.192 6.831-12.246-2.1-3.656-4.28-7.568-6.6-12.3z" fill="#9c5717"/><path d="m180.161 148.808c-.822-5.726-14.429 7.71-25.71 13.635 4.648 7.086 16.837-1.815 26.362-8.618-.171-1.616-.4-3.288-.652-5.017z" fill="#9c5717"/><path d="m187.134 428.332v-8.815c-7.03-2.835-11.169-6.35-11.169-10.177v34.668c0 3.826 4.139 7.342 11.169 10.176z" fill="#e8bd31"/><path d="m187.134 454.184c-7.03-2.834-11.169-6.35-11.169-10.176v35.892a4.357 4.357 0 0 0 .142 1.218c.765 3.374 4.791 6.463 11.112 8.986a4.885 4.885 0 0 1 -.085-.907z" fill="#f09e2b"/><path d="m217.918 202.581a114.819 114.819 0 0 1 107.235-114.548c-2.494-.142-5.017-.227-7.569-.227a114.8 114.8 0 0 0 -94.11 180.51h15.109a114.154 114.154 0 0 1 -20.665-65.735z" fill="#e82e41"/><path d="m372.1 157.992a78.251 78.251 0 0 1 -21.86 110.324h9.751a78.261 78.261 0 0 0 17.631-115.88z" fill="#b7cfe8"/><path d="m363.08 147.22 4.649-4.677a77.983 77.983 0 0 0 -50.145-18.17c-1.644 0-3.259.057-4.875.142a78.135 78.135 0 0 1 50.371 22.705z" fill="#b7cfe8"/><path d="m291.874 202.581a37.97 37.97 0 0 1 31.862-37.5 36.79 36.79 0 0 0 -6.152-.51 38.013 38.013 0 0 0 0 76.025 36.685 36.685 0 0 0 6.152-.511 37.969 37.969 0 0 1 -31.862-37.5z" fill="#e82e41"/></g><path d="m511.558 50.563a7 7 0 0 0 -6.07-4.536l-20.122-1.418 8.533-8.533a7 7 0 0 0 -9.9-9.906l-8.553 8.553-1.491-20.223a7 7 0 0 0 -11.937-4.439l-46.788 46.791a7.007 7.007 0 0 0 -2.033 5.46l2.348 32.306-17.032 17.033a121.8 121.8 0 0 0 -187.735 149.666h-20.127q-5.708-6.645-11.923-13.4a21.846 21.846 0 0 0 -8.6-40.735c.524-.559 1.058-1.123 1.608-1.7 9.167-9.623 20.575-21.6 15.229-57.723a8.377 8.377 0 0 0 -5-6.7c-5.489-2.33-10.586 1.318-19.032 7.367-3.882 2.78-12.654 9.062-16.265 9.564-1.873-3.59-3.736-6.811-5.542-9.931-2.43-4.2-4.944-8.54-7.591-13.976a7 7 0 0 0 -12.593 0c-2.622 5.38-5.108 9.683-7.513 13.845-1.817 3.147-3.693 6.395-5.6 10.063-3.609-.5-12.384-6.781-16.267-9.561-8.446-6.05-13.544-9.693-19.036-7.375a8.388 8.388 0 0 0 -5.016 6.7c-5.326 36.126 6.085 48.1 15.253 57.726.551.579 1.085 1.143 1.61 1.7a21.838 21.838 0 0 0 -8.608 40.738c-36.065 39.221-59.542 76.001-69.835 109.448-9.837 31.964-7.4 61.24 7.048 84.664 14.175 22.982 39.814 40.086 72.194 48.161a177.625 177.625 0 0 0 87.55-.911c10.589 11.378 40.434 14.708 59.546 14.708 23.559 0 63.432-5.059 63.432-24.018v-44.6h140.589a7 7 0 0 0 7-7v-160.049a7 7 0 0 0 -7-7h-12.043a121.65 121.65 0 0 0 -15.825-139.763l17.037-17.037 32.23 2.271c.164.012.329.018.492.018a7.006 7.006 0 0 0 4.951-2.051l46.816-46.788a7 7 0 0 0 1.611-7.409zm-301.862 152a107.763 107.763 0 0 1 178.9-80.995l-16.014 16.014a85.222 85.222 0 0 0 -116.863 123.735h-28.619a107.261 107.261 0 0 1 -17.4-58.753zm148.104 58.754h-80.592a71.222 71.222 0 1 1 85.444-113.8l-18.664 18.664a45.1 45.1 0 1 0 9.9 9.906l18.664-18.664a71.188 71.188 0 0 1 -14.754 103.9zm-45.25-53.8a7 7 0 0 0 9.905 0l21.359-21.358a31.06 31.06 0 1 1 -9.906-9.906l-21.358 21.358a7 7 0 0 0 .003 9.906zm-232.11-49.811c1.018.714 2.043 1.449 2.965 2.108 9.57 6.854 19.473 13.936 28.254 11.828a12.575 12.575 0 0 0 8.367-6.74c1.818-3.54 3.622-6.664 5.533-9.97.554-.962 1.114-1.93 1.679-2.917.593 1.036 1.181 2.051 1.763 3.057 1.89 3.266 3.676 6.351 5.478 9.838a12.553 12.553 0 0 0 8.346 6.731c8.782 2.117 18.687-4.973 28.264-11.832.916-.655 1.936-1.386 2.95-2.1 1.927 23.018-5.074 30.368-12.445 38.107a58.906 58.906 0 0 0 -9.016 11.252h-50.654a58.912 58.912 0 0 0 -9.02-11.256c-7.376-7.738-14.381-15.09-12.464-38.106zm6.105 63.374h81.411a7.84 7.84 0 0 1 0 15.68h-81.411a7.945 7.945 0 0 1 -7.854-7.826 7.864 7.864 0 0 1 7.854-7.854zm82.29 188.313v66.433c-49.749 13.435-117.355 1.947-143.935-41.149-27.26-44.2-3.326-109.442 67.372-183.908h69.951q10.239 10.791 19.187 21.343a7.068 7.068 0 0 0 1.2 1.4c34.735 41.291 54.378 79.5 57.487 112.036-2.743-.119-5.373-.175-7.824-.175-23.565.002-63.438 5.06-63.438 24.02zm77.438-9.475a6.938 6.938 0 0 0 1.248.117h.135c15.545 1.364 25.8 4.627 30.768 7.3a7.052 7.052 0 0 0 1.228.709 8.732 8.732 0 0 1 1.718 1.356c-3.114 3.371-19.479 10.007-49.1 10.007s-45.995-6.633-49.107-10c3.1-3.37 19.477-10.015 49.107-10.015 5.054-.008 9.718.188 14.003.526zm35.418 79.664c-2.1 3.21-18.574 10.4-49.423 10.4s-47.321-7.188-49.424-10.4v-19.514c13.755 6.06 34.752 8.023 49.424 8.023s35.669-1.963 49.423-8.023zm0-35.91c-2.116 3.215-18.6 10.41-49.423 10.41s-47.308-7.194-49.424-10.409v-18.354c13.861 6.13 35.023 8.092 49.424 8.092 14.486 0 35.6-1.968 49.423-8.085zm2.613-49.025c-7.955-4.125-19.075-6.6-30.07-7.939a134 134 0 0 0 -6.284-31.362h9.356a7 7 0 1 0 0-14.008h-14.535a244.234 244.234 0 0 0 -21.2-39.3h163.614a26.9 26.9 0 0 0 18.863 18.862v54.91a26.888 26.888 0 0 0 -18.861 18.836zm144.981 26.712h-133.585v-11.966c0-.249-.011-.494-.024-.738h95.584a7 7 0 0 0 7-7 12.787 12.787 0 0 1 12.789-12.759 7 7 0 0 0 7-7v-67.07a7 7 0 0 0 -7-7 12.8 12.8 0 0 1 -12.789-12.788 7 7 0 0 0 -7-7h-179.385q-4.585-6.3-9.651-12.7h227.061zm-3.941-218.795a107.078 107.078 0 0 1 -17.426 58.753h-28.626a85.165 85.165 0 0 0 3.194-113.828l16.014-16.017a107.343 107.343 0 0 1 26.844 71.092zm2.056-138.072 33.7-33.707 1.251 17.021-33.712 33.719zm28.087 28.1-16.911-1.192 33.672-33.671 16.929 1.193zm-75.287 255.75a7 7 0 0 1 -7 7h-30.854a7 7 0 0 1 0-14.008h30.854a7.005 7.005 0 0 1 7 7.008zm-73.357-6.233v-11.741a7.992 7.992 0 0 1 3.711 3.315 7 7 0 0 0 12.6-6.127c-2.886-5.934-8.945-10.258-16.307-11.948v-3.193a7 7 0 1 0 -14.009 0v3.179c-10.559 2.389-18.091 10.093-18.091 19.478s7.532 17.111 18.091 19.5v11.766a8.045 8.045 0 0 1 -3.738-3.338 7 7 0 0 0 -12.6 6.123c2.893 5.951 8.963 10.285 16.337 11.978v3.199a7 7 0 0 0 14.009 0v-3.182c10.543-2.395 18.062-10.108 18.062-19.5s-7.52-17.113-18.063-19.509zm-14.009-2.294c-2.525-1.237-4.083-3.047-4.083-4.743s1.558-3.492 4.083-4.722zm14.009 26.532v-9.469c2.507 1.237 4.054 3.043 4.054 4.735s-1.545 3.497-4.052 4.734zm-172.573-1.171v-35.176c8.459 1.6 15.555 6.01 18.371 11.8a7 7 0 0 0 12.6-6.131c-5.171-10.624-16.925-18.013-30.967-19.87v-10.95a7 7 0 0 0 -14.009 0v10.963c-19.08 2.6-33.631 15.613-33.631 31.231s14.551 28.608 33.631 31.2v35.208c-8.473-1.6-15.568-6-18.365-11.785a7 7 0 0 0 -12.609 6.1c5.143 10.636 16.9 18.033 30.974 19.889v10.945a7 7 0 0 0 14.009 0v-10.965c19.063-2.6 33.6-15.612 33.6-31.229s-14.541-28.633-33.604-31.23zm-14.009-1.12c-11.165-2.1-19.622-9.043-19.622-17.018s8.457-14.944 19.622-17.046zm14.009 49.394v-34.089c11.148 2.105 19.592 9.059 19.592 17.045s-8.444 14.94-19.592 17.044z"/></svg>