<svg width="17" height="30" viewBox="0 0 17 30" fill="none" xmlns="http://www.w3.org/2000/svg">
<path d="M1.65234 0.0477905C1.03125 0.194275 0.474609 0.657166 0.181641 1.2724L0 1.65326V14.9833V28.3134L0.181641 28.6943C0.410156 29.1806 0.773438 29.5439 1.25977 29.7724L1.64062 29.954H8.4668H15.293L15.6738 29.7724C16.1543 29.5439 16.5176 29.1806 16.752 28.6943L16.9336 28.3134V14.9833V1.65326L16.752 1.2724C16.5176 0.786072 16.1543 0.422791 15.6738 0.194275L15.293 0.0126343L8.58398 0.000915527C4.79883 -0.00494385 1.78125 0.0184937 1.65234 0.0477905ZM13.541 1.41888C13.8281 1.53607 13.9512 1.8349 13.834 2.11615C13.7344 2.35052 13.5879 2.44427 13.3125 2.44427C12.7559 2.44427 12.5977 1.64154 13.1133 1.41888C13.3477 1.31342 13.3008 1.31342 13.541 1.41888ZM11.3965 1.88763V2.2099H8.4668H5.53711V1.88763V1.56537H8.4668H11.3965V1.88763ZM15.3223 13.9872V24.2997H8.4668H1.61133V13.9872V3.67474H8.4668H15.3223V13.9872ZM11.1035 26.8193V27.6396H8.4668H5.83008V26.8193V25.999H8.4668H11.1035V26.8193Z" fill="#274A3F"/>
</svg>
