<svg width="30" height="30" viewBox="0 0 30 30" fill="none" xmlns="http://www.w3.org/2000/svg">
<path d="M6.89648 0.0425415C6.63281 0.118713 6.26367 0.511292 6.1875 0.780823C6.15234 0.90387 6.12305 1.29645 6.12305 1.65387V2.31012L4.99805 2.33356C3.98438 2.35699 3.81445 2.38043 3.33984 2.52106C1.83984 2.97223 0.632812 4.16754 0.164062 5.69098L0 6.21832V16.15V26.0816L0.164062 26.6089C0.632812 28.1265 1.82227 29.316 3.33984 29.7847L3.86719 29.9488H8.94141H14.0098L14.25 29.7906C14.6133 29.5504 14.7656 29.2632 14.7656 28.8062C14.7656 28.3492 14.6133 28.0621 14.25 27.8218L14.0098 27.6636L9.08789 27.6343L4.16016 27.605L3.82031 27.4703C3.16992 27.2066 2.67773 26.691 2.44922 26.0289C2.34961 25.7476 2.34375 25.2203 2.34375 16.15C2.34375 7.07965 2.34961 6.55231 2.44922 6.27106C2.67773 5.60895 3.17578 5.08746 3.82031 4.83551C4.11328 4.72418 4.30078 4.70074 5.13281 4.67731L6.11133 4.65387L6.12891 5.43903C6.15234 6.13629 6.16406 6.24176 6.29297 6.44098C6.36914 6.56403 6.53906 6.73395 6.66797 6.82184C6.86719 6.9566 6.97266 6.98004 7.29492 6.98004C7.61719 6.98004 7.72266 6.9566 7.92188 6.82184C8.05078 6.73395 8.2207 6.56403 8.29688 6.44098C8.42578 6.24176 8.4375 6.13629 8.45508 5.43903L8.47852 4.66559H11.1035H13.7285L13.752 5.44489C13.7695 6.17731 13.7812 6.24176 13.9277 6.46442C14.168 6.83356 14.4551 6.98004 14.918 6.98004C15.2344 6.98004 15.3398 6.95074 15.5391 6.82184C15.668 6.73395 15.8379 6.56403 15.9141 6.44098C16.043 6.24176 16.0547 6.13629 16.0723 5.43903L16.0957 4.66559H18.75H21.4043L21.4277 5.44489C21.4453 6.17731 21.457 6.24176 21.6035 6.46442C21.8438 6.83356 22.1309 6.98004 22.5938 6.98004C22.9102 6.98004 23.0156 6.95074 23.2148 6.82184C23.3438 6.73395 23.5137 6.56403 23.5898 6.44098C23.7188 6.24176 23.7305 6.13629 23.7539 5.43903L23.7715 4.65387L24.7793 4.67731C25.6289 4.70074 25.8281 4.71832 26.0977 4.82965C26.748 5.08746 27.2051 5.53864 27.4629 6.17145L27.5977 6.51129L27.627 10.2906L27.6562 14.0699L27.7969 14.2925C27.873 14.4156 28.043 14.5855 28.1719 14.6734C28.3711 14.8023 28.4766 14.8316 28.793 14.8316C29.2559 14.8316 29.543 14.6851 29.7832 14.316L29.9414 14.0757V10.15V6.21832L29.7773 5.69098C29.3086 4.1734 28.1016 2.97223 26.6016 2.52106C26.127 2.38043 25.957 2.35699 24.9199 2.33356L23.7715 2.31012L23.748 1.53668C23.7305 0.81012 23.7188 0.745667 23.5723 0.52301C23.332 0.159729 23.0449 0.00738525 22.5879 0.00738525C22.1309 0.00738525 21.8438 0.159729 21.6035 0.52301C21.457 0.745667 21.4453 0.81012 21.4277 1.54254L21.4043 2.32184H18.75H16.0957L16.0723 1.54254C16.0547 0.851135 16.043 0.745667 15.9141 0.546448C15.8379 0.423401 15.668 0.253479 15.5391 0.165588C15.3398 0.0366821 15.2344 0.00738525 14.918 0.00738525C14.4551 0.00738525 14.168 0.15387 13.9277 0.52301C13.7812 0.745667 13.7695 0.81012 13.752 1.54254L13.7285 2.32184H11.1035H8.47852L8.45508 1.54254C8.4375 0.81012 8.42578 0.745667 8.2793 0.52301C8.19141 0.394104 8.02734 0.230042 7.91602 0.159729C7.67578 0.00738525 7.18359 -0.0453491 6.89648 0.0425415Z" fill="#274A3F"/>
<path d="M6.89648 11.1753C6.61523 11.2574 6.25781 11.6441 6.17578 11.9429C6.04102 12.4644 6.24609 13.0093 6.69141 13.2847C7.02539 13.4957 7.59375 13.4839 7.92187 13.2671C8.28516 13.0269 8.4375 12.7398 8.4375 12.2828C8.4375 11.8316 8.28516 11.5386 7.93945 11.3101C7.6875 11.1402 7.20703 11.0816 6.89648 11.1753Z" fill="#274A3F"/>
<path d="M11.9941 11.1753C11.7129 11.2574 11.3555 11.6441 11.2734 11.9429C11.1387 12.4644 11.3437 13.0093 11.7891 13.2847C12.123 13.4957 12.6914 13.4839 13.0195 13.2671C13.3828 13.0269 13.5352 12.7398 13.5352 12.2828C13.5352 11.8316 13.3828 11.5386 13.0371 11.3101C12.7852 11.1402 12.3047 11.0816 11.9941 11.1753Z" fill="#274A3F"/>
<path d="M17.0918 11.1753C16.8105 11.2574 16.4531 11.6441 16.3711 11.9429C16.2363 12.4644 16.4414 13.0093 16.8867 13.2847C17.2207 13.4957 17.7891 13.4839 18.1172 13.2671C18.4805 13.0269 18.6328 12.7398 18.6328 12.2828C18.6328 11.8316 18.4805 11.5386 18.1348 11.3101C17.8828 11.1402 17.4023 11.0816 17.0918 11.1753Z" fill="#274A3F"/>
<path d="M22.1895 11.1753C21.9082 11.2574 21.5508 11.6441 21.4687 11.9429C21.334 12.4644 21.5391 13.0093 21.9844 13.2847C22.3184 13.4957 22.8867 13.4839 23.2148 13.2671C23.5781 13.0269 23.7305 12.7398 23.7305 12.2828C23.7305 11.8316 23.5781 11.5386 23.2324 11.3101C22.9805 11.1402 22.5 11.0816 22.1895 11.1753Z" fill="#274A3F"/>
<path d="M21.8555 15.8863C20.3086 16.1265 18.8965 16.8472 17.8301 17.9429C17.2676 18.5113 16.8809 19.0679 16.5176 19.8121C15.5566 21.7867 15.5566 23.9898 16.5176 25.9644C17.2383 27.4351 18.3398 28.5367 19.7988 29.2457C21.7852 30.2125 23.9766 30.2125 25.9629 29.2457C27.4219 28.5367 28.5234 27.4351 29.2441 25.9644C30.2051 23.9898 30.2051 21.7867 29.2441 19.8121C28.5234 18.3414 27.4219 17.2398 25.9629 16.5308C24.6621 15.898 23.2148 15.6695 21.8555 15.8863ZM23.7129 18.2242C25.998 18.6754 27.627 20.6089 27.627 22.8882C27.627 25.1675 25.998 27.1011 23.7129 27.5523C22.0898 27.8687 20.2852 27.2066 19.2305 25.9058C17.7773 24.1129 17.7773 21.6636 19.2305 19.8707C20.2852 18.5757 22.0898 17.9078 23.7129 18.2242Z" fill="#274A3F"/>
<path d="M22.4824 19.3785C22.2071 19.4605 21.8438 19.8472 21.7676 20.1343C21.7266 20.2925 21.709 20.8902 21.7207 21.8277L21.7383 23.2808L21.8965 23.5152C21.9844 23.6441 22.1543 23.814 22.2774 23.8902C22.4942 24.025 22.5352 24.0308 23.7305 24.0308C24.9258 24.0308 24.9668 24.025 25.1836 23.8902C25.3067 23.814 25.4766 23.6441 25.5645 23.5152C25.7813 23.1871 25.793 22.6187 25.5821 22.2847C25.3535 21.9156 25.0606 21.7574 24.5215 21.7281L24.0645 21.7047L24.041 20.9019C24.0235 20.1871 24.0117 20.0816 23.8828 19.8824C23.6074 19.4371 22.9981 19.2203 22.4824 19.3785Z" fill="#274A3F"/>
<path d="M6.89648 16.273C6.61523 16.355 6.25781 16.7418 6.17578 17.0406C6.04102 17.5621 6.24609 18.107 6.69141 18.3824C7.02539 18.5933 7.59375 18.5816 7.92187 18.3648C8.28516 18.1246 8.4375 17.8375 8.4375 17.3804C8.4375 16.9293 8.28516 16.6363 7.93945 16.4078C7.6875 16.2378 7.20703 16.1793 6.89648 16.273Z" fill="#274A3F"/>
<path d="M11.9941 16.273C11.7129 16.355 11.3555 16.7418 11.2734 17.0406C11.1387 17.5621 11.3437 18.107 11.7891 18.3824C12.123 18.5933 12.6914 18.5816 13.0195 18.3648C13.3828 18.1246 13.5352 17.8375 13.5352 17.3804C13.5352 16.9293 13.3828 16.6363 13.0371 16.4078C12.7852 16.2378 12.3047 16.1793 11.9941 16.273Z" fill="#274A3F"/>
<path d="M6.89648 21.3707C6.61523 21.4527 6.25781 21.8394 6.17578 22.1382C6.04102 22.6597 6.24609 23.2046 6.69141 23.48C7.02539 23.691 7.59375 23.6793 7.92187 23.4625C8.28516 23.2222 8.4375 22.9351 8.4375 22.4781C8.4375 22.0269 8.28516 21.7339 7.93945 21.5054C7.6875 21.3355 7.20703 21.2769 6.89648 21.3707Z" fill="#274A3F"/>
<path d="M11.9941 21.3707C11.7129 21.4527 11.3555 21.8394 11.2734 22.1382C11.1387 22.6597 11.3437 23.2046 11.7891 23.48C12.123 23.691 12.6914 23.6793 13.0195 23.4625C13.3828 23.2222 13.5352 22.9351 13.5352 22.4781C13.5352 22.0269 13.3828 21.7339 13.0371 21.5054C12.7852 21.3355 12.3047 21.2769 11.9941 21.3707Z" fill="#274A3F"/>
</svg>
