<svg width="30" height="30" viewBox="0 0 30 30" fill="none" xmlns="http://www.w3.org/2000/svg">
<g clip-path="url(#clip0_9_57)">
<path d="M5.15625 0.087893C2.48438 0.556643 0.462891 2.63086 0.0644531 5.31446C-0.0234375 5.90039 -0.0234375 24.0996 0.0644531 24.6855C0.474609 27.4219 2.57812 29.5254 5.31445 29.9355C5.90039 30.0234 24.0996 30.0234 24.6855 29.9355C27.4219 29.5254 29.5254 27.4219 29.9355 24.6855C30.0234 24.0996 30.0234 5.90039 29.9355 5.31446C29.5254 2.57813 27.4219 0.474612 24.6855 0.0644555C24.0176 -0.0351539 5.73047 -0.0117164 5.15625 0.087893ZM9.54492 6.94922C9.71484 6.9961 9.94922 7.125 10.0723 7.24219C10.3066 7.45313 11.4961 9.375 11.6367 9.76758C11.8008 10.2363 11.6836 10.7402 11.291 11.2441C10.9043 11.7363 10.8223 11.9297 10.793 12.4277C10.7461 13.248 10.6934 13.1777 13.7578 16.2422C16.8223 19.3066 16.752 19.2539 17.5723 19.207C18.0703 19.1777 18.2637 19.0957 18.7559 18.709C19.2598 18.3164 19.7637 18.1992 20.2324 18.3633C20.6309 18.5098 22.5469 19.6934 22.7637 19.9277C23.0156 20.209 23.1738 20.7129 23.1211 21.082C23.0742 21.4277 22.6465 22.2305 22.3535 22.5234C21.4277 23.4316 19.4004 23.3379 17.1387 22.2715C11.1211 19.4355 5.60156 11.707 7.0957 8.21485C7.27148 7.81055 7.53516 7.53516 8.00391 7.26563C8.75391 6.83789 9 6.78516 9.54492 6.94922Z" fill="#FFFFEC"/>
</g>
<defs>
<clipPath id="clip0_9_57">
<rect width="30" height="30" fill="white"/>
</clipPath>
</defs>
</svg>
