<svg id="Layer_1" enable-background="new 0 0 134 134" height="512" viewBox="0 0 134 134" width="512" xmlns="http://www.w3.org/2000/svg"><g><g><path d="m63.94 30.69h5.14v31.48h-5.14z" fill="#434a54"/></g><g><path d="m69.08 62.67h-5.14c-.28 0-.5-.22-.5-.5v-31.48c0-.28.22-.5.5-.5h5.14c.28 0 .5.22.5.5v31.48c0 .27-.22.5-.5.5zm-4.64-1h4.14v-30.48h-4.14z"/></g><g><g><path d="m102.21 37.79v5.14h-13.33v13.33h-5.14v-18.47z" fill="#434a54"/></g><g><path d="m88.88 56.76h-5.14c-.28 0-.5-.22-.5-.5v-18.47c0-.28.22-.5.5-.5h18.47c.28 0 .5.22.5.5v5.14c0 .28-.22.5-.5.5h-12.83v12.83c0 .27-.22.5-.5.5zm-4.64-1h4.14v-12.83c0-.28.22-.5.5-.5h12.83v-4.14h-17.47z"/></g><g><path d="m30.8 37.79v5.14h13.33v13.33h5.14v-18.47z" fill="#434a54"/></g><g><path d="m49.27 56.76h-5.14c-.28 0-.5-.22-.5-.5v-12.83h-12.83c-.28 0-.5-.22-.5-.5v-5.14c0-.28.22-.5.5-.5h18.47c.28 0 .5.22.5.5v18.47c0 .27-.22.5-.5.5zm-4.64-1h4.14v-17.47h-17.47v4.14h12.83c.28 0 .5.22.5.5z"/></g></g><g><g><path d="m107.38 60.25v50.86c0 2.2-1.79 3.99-3.99 3.99h-73.76c-2.2 0-3.99-1.79-3.99-3.99v-50.86c0-2.2 1.79-3.99 3.99-3.99h73.76c2.2 0 3.99 1.78 3.99 3.99z" fill="#e5e8ec"/></g><g><path d="m31.23 61.84h70.56v41.44h-70.56z" fill="#4a89dc"/></g><g><g><path d="m81.72 82.57c0 8.4-6.81 15.21-15.21 15.21s-15.21-6.81-15.21-15.21 6.81-15.21 15.21-15.21c8.4-.01 15.21 6.8 15.21 15.21z" fill="#fecd57"/></g><g><path d="m66.51 94.75c-6.72 0-12.18-5.47-12.18-12.18 0-6.72 5.47-12.19 12.18-12.19 6.72 0 12.19 5.47 12.19 12.19s-5.47 12.18-12.19 12.18zm0-23.37c-6.17 0-11.18 5.02-11.18 11.19s5.02 11.18 11.18 11.18c6.17 0 11.19-5.02 11.19-11.18 0-6.17-5.02-11.19-11.19-11.19z"/></g><g><path d="m66.5 98.27c-8.66 0-15.71-7.05-15.71-15.71 0-8.67 7.05-15.71 15.71-15.71s15.71 7.05 15.71 15.71c.01 8.67-7.04 15.71-15.71 15.71zm0-30.42c-8.11 0-14.71 6.6-14.71 14.71s6.6 14.71 14.71 14.71 14.71-6.6 14.71-14.71c.01-8.1-6.59-14.71-14.71-14.71z"/></g><g><g><g><path d="m66.51 83.06c-2.18 0-3.95-1.77-3.95-3.95s1.77-3.96 3.95-3.96 3.96 1.78 3.96 3.96c0 .28-.22.5-.5.5s-.5-.22-.5-.5c0-1.63-1.33-2.96-2.96-2.96s-2.95 1.33-2.95 2.96 1.32 2.95 2.95 2.95c.28 0 .5.22.5.5s-.23.5-.5.5z"/></g><g><path d="m66.51 89.98c-2.18 0-3.96-1.78-3.96-3.96 0-.28.22-.5.5-.5s.5.22.5.5c0 1.63 1.33 2.96 2.96 2.96s2.95-1.33 2.95-2.96-1.32-2.95-2.95-2.95c-.28 0-.5-.22-.5-.5s.22-.5.5-.5c2.18 0 3.95 1.77 3.95 3.95s-1.77 3.96-3.95 3.96z"/></g></g><g><path d="m66.51 91.46c-.28 0-.5-.22-.5-.5v-16.79c0-.28.22-.5.5-.5s.5.22.5.5v16.78c0 .28-.22.51-.5.51z"/></g></g></g><g><path d="m101.79 103.78h-70.56c-.28 0-.5-.22-.5-.5v-41.44c0-.28.22-.5.5-.5h70.56c.28 0 .5.22.5.5v41.44c0 .28-.22.5-.5.5zm-70.06-1h69.56v-40.44h-69.56z"/></g><g><path d="m68.9 109.19c0 1.32-1.07 2.39-2.39 2.39s-2.4-1.07-2.4-2.39 1.08-2.39 2.4-2.39c1.32.01 2.39 1.07 2.39 2.39z" fill="#434a54"/></g><g><path d="m66.51 112.08c-1.6 0-2.9-1.29-2.9-2.89s1.3-2.89 2.9-2.89c1.59 0 2.89 1.29 2.89 2.89s-1.29 2.89-2.89 2.89zm0-4.77c-1.05 0-1.9.85-1.9 1.89s.85 1.89 1.9 1.89c1.04 0 1.89-.85 1.89-1.89s-.84-1.89-1.89-1.89z"/></g><g><path d="m103.39 115.6h-73.76c-2.48 0-4.49-2.01-4.49-4.49v-50.86c0-2.48 2.01-4.49 4.49-4.49h73.76c2.48 0 4.49 2.01 4.49 4.49v50.86c0 2.48-2.02 4.49-4.49 4.49zm-73.76-58.84c-1.92 0-3.49 1.57-3.49 3.49v50.86c0 1.92 1.57 3.49 3.49 3.49h73.76c1.92 0 3.49-1.57 3.49-3.49v-50.86c0-1.92-1.57-3.49-3.49-3.49z"/></g><g><path d="m53.81 115.1h25.4v11.73h-25.4z" fill="#434a54"/></g><g><path d="m79.21 127.33h-25.4c-.28 0-.5-.22-.5-.5v-11.73c0-.28.22-.5.5-.5h25.4c.28 0 .5.22.5.5v11.73c0 .28-.23.5-.5.5zm-24.9-1h24.4v-10.73h-24.4z"/></g><g><path d="m47.2 123.96h38.61v6.54h-38.61z" fill="#e5e8ec"/></g><g><path d="m85.81 131h-38.61c-.28 0-.5-.22-.5-.5v-6.54c0-.28.22-.5.5-.5h38.61c.28 0 .5.22.5.5v6.54c0 .28-.22.5-.5.5zm-38.11-1h37.61v-5.54h-37.61z"/></g></g><g><g><path d="m84.7 21.2c0 9.77-7.92 17.69-17.69 17.69s-17.71-7.92-17.71-17.69 7.93-17.7 17.7-17.7 17.7 7.93 17.7 17.7z" fill="#e5e8ec"/></g><g><path d="m67 39.39c-10.04 0-18.2-8.16-18.2-18.19s8.17-18.2 18.2-18.2c10.04 0 18.2 8.17 18.2 18.2s-8.16 18.19-18.2 18.19zm0-35.39c-9.48 0-17.2 7.72-17.2 17.2s7.72 17.19 17.2 17.19 17.19-7.71 17.19-17.19c.01-9.48-7.71-17.2-17.19-17.2z"/></g><g><path d="m80.9 32.15c-3.24 4.11-8.26 6.75-13.9 6.75s-10.67-2.64-13.9-6.75c2.09-5.64 7.53-9.67 13.9-9.67s11.81 4.02 13.9 9.67z" fill="#ec5564"/></g><g><path d="m73.3 13.86c0 3.48-2.82 6.3-6.3 6.3s-6.3-2.82-6.3-6.3 2.82-6.3 6.3-6.3 6.3 2.82 6.3 6.3z" fill="#ec5564"/></g><g><path d="m67.01 39.39c-5.61 0-10.82-2.53-14.3-6.94-.11-.14-.14-.32-.08-.48 2.21-5.98 7.99-9.99 14.37-9.99s12.15 4.02 14.37 10c.06.16.03.35-.08.48-3.47 4.41-8.67 6.93-14.28 6.93zm-13.34-7.34c3.28 4.03 8.13 6.34 13.33 6.34 5.21 0 10.05-2.3 13.33-6.33-2.14-5.45-7.46-9.09-13.33-9.09s-11.19 3.64-13.33 9.08z"/></g><g><path d="m67 20.66c-3.75 0-6.8-3.05-6.8-6.8s3.05-6.8 6.8-6.8 6.8 3.05 6.8 6.8-3.05 6.8-6.8 6.8zm0-12.6c-3.2 0-5.8 2.6-5.8 5.8s2.6 5.8 5.8 5.8 5.8-2.6 5.8-5.8-2.6-5.8-5.8-5.8z"/></g></g><g><g><path d="m130.5 34.57c0 9.77-7.92 17.69-17.69 17.69s-17.7-7.92-17.7-17.69 7.93-17.7 17.7-17.7 17.69 7.92 17.69 17.7z" fill="#e5e8ec"/></g><g><path d="m112.81 52.76c-10.04 0-18.2-8.16-18.2-18.19 0-10.04 8.16-18.2 18.2-18.2 10.03 0 18.19 8.17 18.19 18.2s-8.16 18.19-18.19 18.19zm0-35.39c-9.48 0-17.2 7.72-17.2 17.2s7.72 17.19 17.2 17.19 17.19-7.71 17.19-17.19c0-9.49-7.71-17.2-17.19-17.2z"/></g><g><path d="m126.71 45.51c-3.24 4.11-8.26 6.75-13.9 6.75s-10.67-2.64-13.9-6.75c2.09-5.64 7.53-9.67 13.9-9.67s11.81 4.03 13.9 9.67z" fill="#9ed36a"/></g><g><path d="m119.11 27.23c0 3.48-2.82 6.3-6.3 6.3s-6.3-2.82-6.3-6.3 2.82-6.3 6.3-6.3 6.3 2.82 6.3 6.3z" fill="#9ed36a"/></g><g><path d="m112.81 52.76c-5.61 0-10.82-2.53-14.3-6.94-.11-.14-.14-.32-.08-.48 2.21-5.98 7.99-9.99 14.37-9.99s12.15 4.02 14.37 10c.06.16.03.35-.08.48-3.46 4.4-8.67 6.93-14.28 6.93zm-13.33-7.34c3.28 4.03 8.13 6.34 13.33 6.34 5.21 0 10.05-2.3 13.33-6.33-2.14-5.45-7.46-9.09-13.33-9.09s-11.2 3.64-13.33 9.08z"/></g><g><path d="m112.81 34.03c-3.75 0-6.8-3.05-6.8-6.8s3.05-6.8 6.8-6.8 6.8 3.05 6.8 6.8-3.05 6.8-6.8 6.8zm0-12.61c-3.2 0-5.8 2.6-5.8 5.8s2.6 5.8 5.8 5.8 5.8-2.6 5.8-5.8c0-3.19-2.61-5.8-5.8-5.8z"/></g></g><g><g><path d="m38.89 34.57c0 9.77-7.92 17.69-17.69 17.69s-17.7-7.92-17.7-17.69 7.93-17.7 17.7-17.7 17.69 7.92 17.69 17.7z" fill="#e5e8ec"/></g><g><path d="m21.2 52.76c-10.04 0-18.2-8.16-18.2-18.19 0-10.04 8.16-18.2 18.2-18.2 10.03 0 18.19 8.17 18.19 18.2s-8.16 18.19-18.19 18.19zm0-35.39c-9.48 0-17.2 7.72-17.2 17.2s7.72 17.19 17.2 17.19 17.19-7.71 17.19-17.19c0-9.49-7.71-17.2-17.19-17.2z"/></g><g><path d="m35.1 45.51c-3.24 4.11-8.26 6.75-13.9 6.75s-10.67-2.64-13.9-6.75c2.09-5.64 7.53-9.67 13.9-9.67s11.81 4.03 13.9 9.67z" fill="#ac92ea"/></g><g><path d="m27.5 27.23c0 3.48-2.82 6.3-6.3 6.3s-6.3-2.82-6.3-6.3 2.82-6.3 6.3-6.3 6.3 2.82 6.3 6.3z" fill="#ac92ea"/></g><g><path d="m21.2 52.76c-5.61 0-10.82-2.53-14.3-6.94-.11-.14-.14-.32-.08-.48 2.21-5.98 7.99-9.99 14.37-9.99s12.15 4.02 14.37 10c.06.16.03.35-.08.48-3.46 4.4-8.67 6.93-14.28 6.93zm-13.33-7.34c3.28 4.03 8.13 6.34 13.33 6.34 5.21 0 10.05-2.3 13.33-6.33-2.14-5.45-7.46-9.09-13.33-9.09s-11.2 3.64-13.33 9.08z"/></g><g><path d="m21.2 34.03c-3.75 0-6.8-3.05-6.8-6.8s3.05-6.8 6.8-6.8 6.8 3.05 6.8 6.8-3.05 6.8-6.8 6.8zm0-12.61c-3.2 0-5.8 2.6-5.8 5.8s2.6 5.8 5.8 5.8 5.8-2.6 5.8-5.8c0-3.19-2.6-5.8-5.8-5.8z"/></g></g></g></svg>