<?xml version="1.0"?>
<svg xmlns="http://www.w3.org/2000/svg" id="Icons" viewBox="0 0 60 60"><title/><path d="M23,28H37a2.987,2.987,0,0,0,2.22-5A2.987,2.987,0,0,0,37,18H35.974a10,10,0,1,0-11.948,0H23a2.987,2.987,0,0,0-2.22,5A2.987,2.987,0,0,0,23,28Zm14-2H23a1,1,0,0,1,0-2H37a1,1,0,0,1,0,2ZM22,10a8,8,0,1,1,8,8A8.009,8.009,0,0,1,22,10Zm1,10H37a1,1,0,0,1,0,2H23a1,1,0,0,1,0-2Z"/><path d="M10.438,35.354,6.45,25.142a3.334,3.334,0,0,0-6.335,2.05l3.394,12.1a5.016,5.016,0,0,0,3.035,3.379L16.8,46.609l-2.7,9.9a2.722,2.722,0,0,0-.1.735A2.763,2.763,0,0,0,16.76,60h8.48A2.763,2.763,0,0,0,28,57.24V37a5.006,5.006,0,0,0-5-5H15.107a3.084,3.084,0,0,0-3.067,2.5,3.03,3.03,0,0,0,.132,1.5h-.8A1.01,1.01,0,0,1,10.438,35.354ZM15,38h7a1,1,0,0,0,0-2H15a1,1,0,0,1-.985-1.175A1.083,1.083,0,0,1,15.107,34H23a3,3,0,0,1,3,3V57.24a.761.761,0,0,1-.76.76H16.76a.762.762,0,0,1-.76-.765.77.77,0,0,1,.027-.2l2.938-10.772a1,1,0,0,0-.606-1.2L7.263,40.8a3.013,3.013,0,0,1-1.825-2.04L2.045,26.665a1.334,1.334,0,0,1,2.54-.8L8.573,36.076A3.019,3.019,0,0,0,11.374,38Z"/><path d="M47.96,34.5A3.084,3.084,0,0,0,44.893,32H37a5.006,5.006,0,0,0-5,5V57.24A2.763,2.763,0,0,0,34.76,60h8.48A2.764,2.764,0,0,0,46,57.235a2.687,2.687,0,0,0-.1-.725l-2.7-9.9,10.254-3.943A5.011,5.011,0,0,0,56.488,39.3l3.4-12.121a3.334,3.334,0,0,0-6.337-2.042L49.56,35.359a1.008,1.008,0,0,1-.934.641h-.8A3.03,3.03,0,0,0,47.96,34.5Zm.666,3.5a3.017,3.017,0,0,0,2.8-1.919l3.992-10.223a1.334,1.334,0,0,1,2.542.793l-3.4,12.12A3.011,3.011,0,0,1,52.737,40.8l-11.1,4.267a1,1,0,0,0-.606,1.2L43.974,57.04a.763.763,0,0,1-.734.96H34.76a.761.761,0,0,1-.76-.76V37a3,3,0,0,1,3-3h7.893a1.083,1.083,0,0,1,1.092.825A1,1,0,0,1,45,36H38a1,1,0,0,0,0,2H48.626Z"/><path d="M30,9a1,1,0,1,1,.867-1.5,1,1,0,0,0,1.731-1A2.993,2.993,0,0,0,31,5.2V5a1,1,0,0,0-2,0v.184A2.993,2.993,0,0,0,30,11a1,1,0,1,1-.867,1.5,1,1,0,0,0-1.731,1,2.993,2.993,0,0,0,1.6,1.3V15a1,1,0,0,0,2,0v-.184A2.993,2.993,0,0,0,30,9Z"/></svg>
