<svg id="Layer_1" enable-background="new 0 0 512 512" height="512" viewBox="0 0 512 512" width="512" xmlns="http://www.w3.org/2000/svg"><g clip-rule="evenodd" fill-rule="evenodd"><g><g><path d="m218.08 383.9c3.89-14.29-4.65-29.22-18.94-33.11l-90.85-24.73c-12.06-1.6-23.01 1.32-32.66 8.72l-35.85 27.45 25.91 96.68c18.02-17.36 34.03-20.82 51.51-16.81l52.04 11.93c11.85 2.72 22.99 1.67 33.52-4.41l130.13-75.13c11.61-6.7 15.63-21.69 8.92-33.3-6.7-11.61-21.69-15.63-33.3-8.92l-90.63 52.32c.07-.23.14-.46.2-.69z" fill="#ffd6bd"/><path d="m184.98 402.84c14.31 3.9 29.21-4.63 33.1-18.94.13-.47.24-.93.34-1.4-6.53 8.11-17.49 12.08-28.13 9.18l-48.53-13.21c-3.23-.88-6.58 1.04-7.46 4.27-.88 3.22 1.05 6.59 4.27 7.46z" fill="#f9c6aa"/><path d="m40.67 346.31 31.34 116.96c.76 2.85-.94 5.81-3.8 6.58l-21.62 5.79c-2.85.76-5.81-.94-6.58-3.8l-31.33-116.96c-.76-2.85.94-5.81 3.8-6.58l21.62-5.79c2.85-.77 5.81.94 6.57 3.8z" fill="#4294ff"/></g><path d="m345.87 118.09c46.91 80.5 70.36 120.75 70.36 120.75 14.76-28.17 24.1-49.2 57.12-54.87 2.33-62.01 3.49-93.01 3.49-93.01-87.31 18.09-130.97 27.13-130.97 27.13z" fill="#f9c6aa"/><g><path d="m419.75 99.07v159.37c0 9.6-7.83 17.43-17.43 17.43h-334.4c-9.6 0-17.43-7.83-17.43-17.43v-159.37c0-9.6 7.83-17.43 17.43-17.43h334.41c9.59 0 17.42 7.83 17.42 17.43z" fill="#22c269"/><g fill="#1cb15f"><path d="m101.4 275.86h-33.48c-9.6 0-17.43-7.83-17.43-17.43v-33.48c28.12 0 50.91 22.8 50.91 50.91z"/><path d="m419.75 224.95v33.48c0 9.6-7.83 17.43-17.43 17.43h-33.48c0-28.11 22.79-50.91 50.91-50.91z"/><path d="m419.75 99.07v33.48c-28.12 0-50.91-22.79-50.91-50.91h33.48c9.6 0 17.43 7.83 17.43 17.43z"/><path d="m50.49 132.55v-33.48c0-9.6 7.83-17.43 17.43-17.43h33.48c0 28.12-22.79 50.91-50.91 50.91z"/></g><ellipse cx="235.12" cy="178.75" fill="#eff4f7" rx="63.32" ry="63.32" transform="matrix(.021 -1 1 .021 51.512 410.098)"/></g><path d="m482.95 77.59.86 33.64-64.06 21.32c-26.76 3.62-47.03 4.44-76.07-28.63-15.35 8.86-39.9 22.59-53.64 30.6-13.13 7.65-30.14 3.17-37.79-9.97-7.64-13.11-3.15-30.15 9.97-37.79 27.79-16.19 53.01-31.56 81.38-46.7 11-5.87 22.96-4.38 34.64-.03 34.76 12.93 47.05 36.42 104.71 37.56z" fill="#ffd6bd"/><path d="m464.13 61.99v138.46c0 3.51 2.87 6.38 6.38 6.38h26.61c3.51 0 6.38-2.87 6.38-6.38v-138.46c0-3.51-2.87-6.38-6.38-6.38h-26.61c-3.51 0-6.38 2.87-6.38 6.38z" fill="#4294ff"/></g><path d="m334.89 345.19c-2.17-3.77-5.71-6.47-9.95-7.6-4.25-1.14-8.66-.57-12.42 1.6l-88.09 50.86c-5.4 13.24-18.37 21.74-32.38 21.74-3.03 0-6.11-.4-9.17-1.23l-48.53-13.21c-4.26-1.16-6.78-5.56-5.62-9.82s5.56-6.78 9.82-5.62l48.52 13.21c10.1 2.74 20.54-3.23 23.29-13.32s-3.23-20.54-13.32-23.29l-90.31-24.58c-9.79-1.17-18.37 1.18-26.24 7.21l-27.32 20.92 21.31 79.54c14.18-8.77 28.27-11.01 44.51-7.29l52.03 11.93c10.4 2.38 19.47 1.22 27.73-3.54l130.14-75.14c7.83-4.51 10.52-14.55 6-22.37zm-271.29 117.61-16.53 4.43-29.98-111.88 16.54-4.43 2.68 10.02c.01.03.02.05.02.07zm285.15-125.61c8.92 15.46 3.61 35.31-11.85 44.23l-130.14 75.13c-7.94 4.58-16.54 6.88-25.7 6.88-4.41 0-8.95-.53-13.6-1.6l-52.04-11.93c-13.58-3.11-24.43-.77-36.55 8.03l.87 3.27c1.91 7.12-2.33 14.46-9.45 16.37l-21.62 5.79c-1.15.31-2.31.46-3.47.46-2.32 0-4.61-.61-6.67-1.8-3.1-1.79-5.31-4.67-6.23-8.11l-31.34-116.96c-.93-3.45-.45-7.05 1.34-10.14 1.79-3.1 4.67-5.31 8.11-6.24l21.62-5.79c7.12-1.9 14.46 2.34 16.37 9.46l.3 1.1 22.07-16.91c11.38-8.71 24.36-12.18 38.58-10.3.35.05.7.12 1.05.22l90.85 24.72c13.35 3.64 22.79 14.58 25.19 27.34l78.08-45.07c7.46-4.31 16.19-5.45 24.56-3.21 8.37 2.25 15.36 7.59 19.67 15.06zm146.75-273.58h-23.37v135.24h23.37zm-39.37 116.98v-97.42c-23.91-4.15-38.56-12.89-52.77-21.38-8.87-5.3-17.25-10.3-27.91-14.27-11.59-4.31-20.51-4.44-28.08-.41-21.17 11.29-40.38 22.61-60.73 34.59-6.69 3.94-13.46 7.93-20.39 11.97-4.5 2.62-7.72 6.87-9.06 11.97-1.35 5.1-.65 10.38 1.97 14.88 5.45 9.36 17.5 12.53 26.86 7.08 7.46-4.34 18.24-10.45 28.66-16.36 8.84-5.01 17.98-10.19 25.01-14.25 3.3-1.91 7.49-1.22 10.01 1.65 26.36 30.04 43.39 29.44 68.98 25.98 2.29-.31 4.6.39 6.34 1.91 1.73 1.52 2.73 3.71 2.73 6.02v72.33c7.03-10.4 15.53-18.95 28.38-24.29zm-44.38 77.85v-24.72c-17.25 3.27-30.88 16.89-34.15 34.15h24.72c5.2 0 9.43-4.23 9.43-9.43zm-343.83 9.43h24.72c-3.27-17.26-16.89-30.88-34.15-34.15v24.72c0 5.2 4.23 9.43 9.43 9.43zm-9.43-168.8v24.72c17.26-3.27 30.88-16.89 34.15-34.15h-24.72c-5.2 0-9.43 4.23-9.43 9.43zm188.85-9.43c-2.56 3.54-4.47 7.56-5.62 11.92-.54 2.03-.88 4.07-1.06 6.11-1.84-.14-3.69-.23-5.54-.23-39.32 0-71.32 31.99-71.32 71.32 0 39.32 32 71.31 71.32 71.31 39.33 0 71.32-31.99 71.32-71.31 0-13.57-3.88-26.77-11.04-38.1 7.31-4.24 17.39-9.96 27.17-15.5 6.68-3.79 13.53-7.67 19.53-11.11 25.58 27.03 45.96 29.85 69.65 27.51v75.96c-26.09 3.56-46.79 24.25-50.35 50.35h-252.56c-3.56-26.1-24.26-46.79-50.35-50.35v-77.53c26.09-3.56 46.79-24.26 50.35-50.35zm-2 38.94c7.25 12.44 20.93 18.85 34.41 17.5 6.92 9.44 10.69 20.88 10.69 32.68 0 30.5-24.81 55.31-55.32 55.31-30.5 0-55.32-24.81-55.32-55.31 0-30.51 24.82-55.32 55.32-55.32 2.68 0 5.35.21 7.99.59.63 1.55 1.37 3.07 2.23 4.55zm266.16-66.58v138.46c0 7.93-6.45 14.39-14.38 14.39h-26.61c-7.93 0-14.38-6.46-14.38-14.39v-1.96c-11.92 7.37-18.37 19.73-27.19 36.66-.39.75-.79 1.51-1.19 2.27v21.01c0 14.02-11.4 25.43-25.43 25.43h-334.4c-14.02 0-25.43-11.41-25.43-25.43v-159.37c0-14.02 11.41-25.43 25.43-25.43h200.85c3.27-1.92 6.52-3.83 9.76-5.73 20.49-12.07 39.84-23.46 61.3-34.91 11.75-6.27 25.23-6.42 41.21-.47 12.02 4.47 21.43 10.09 30.52 15.52 12.9 7.7 25.17 15.03 44.57 18.85v-4.9c0-7.93 6.45-14.39 14.38-14.39h26.61c7.93 0 14.38 6.46 14.38 14.39zm-251.55 131.89c0 10.83-7.47 19.94-17.52 22.46v2.29c0 4.42-3.58 8-8 8s-8-3.59-8-8v-2.3c-5.22-1.32-9.91-4.46-13.14-8.92-2.59-3.58-1.79-8.58 1.79-11.17s8.59-1.79 11.17 1.79c1.36 1.88 3.53 3 5.8 3h4.76c3.94 0 7.14-3.21 7.14-7.15 0-3.93-3.2-7.13-7.14-7.13h-3.38c-12.76 0-23.14-10.38-23.14-23.14 0-10.83 7.47-19.94 17.52-22.46v-2.29c0-4.41 3.58-8 8-8s8 3.59 8 8v2.31c5.23 1.32 9.92 4.45 13.14 8.91 2.59 3.58 1.79 8.58-1.79 11.17s-8.58 1.78-11.17-1.79c-1.36-1.88-3.52-3-5.79-3h-4.77c-3.94 0-7.14 3.21-7.14 7.15 0 3.93 3.2 7.14 7.14 7.14h3.38c12.76 0 23.14 10.38 23.14 23.13z"/></g></svg>