<svg id="Capa_1" enable-background="new 0 0 512 512" height="512" viewBox="0 0 512 512" width="512" xmlns="http://www.w3.org/2000/svg"><g><path d="m512 256c0 99.25-56.48 185.31-139.06 227.78-38.969-17.92-70.74-10.6-110.48-9.63-2.15.06-4.3.09-6.46.09-9.19 0-18.26 37.28-27.2 36.33-128.59-13.58-228.8-122.38-228.8-254.57 0-132.11 100.08-240.85 228.56-254.54 9.02-.97 15.712 19.558 24.982 19.558 4.07 0 8.12.1 12.15.29 38.52 1.79 77.278-8.909 109.508 8.082 81.35 42.88 136.8 128.27 136.8 226.61z" fill="#78d0b1"/><g><g><path d="m262.32 410.4-24.05 24.05-20.2 20.2-18.71 18.71c-4.64 4.64-10.73 6.97-16.82 6.97s-12.18-2.33-16.82-6.97c-9.28-9.29-9.28-24.34 0-33.63l16.32-16.32 18.65-18.65 28-28c9.29-9.28 20.14-5.08 29.43 4.21 9.28 9.29 13.49 20.14 4.2 29.43z" fill="#b46e59"/><path d="m210.405 415.079-34.672 34.684c-7.546 7.546-8.955 18.893-4.252 27.861-2.073-1.09-4.027-2.511-5.769-4.253-9.287-9.287-9.287-24.342 0-33.629l62.982-62.982c6.87-6.871-11.834 20.053-18.289 38.319z" fill="#a55e4d"/></g><path d="m141.655 116.283c-4.876 4.876-7.308 11.256-7.308 17.635 0 6.391 2.433 12.781 7.308 17.646-9.741-9.741-25.53-9.741-35.281 0-4.865 4.865-7.309 11.256-7.309 17.646 0 6.38 2.443 12.759 7.309 17.635l16.22 16.22c-9.741-9.741-25.541-9.741-35.282 0-4.865 4.865-7.308 11.256-7.308 17.635 0 6.38 2.443 12.759 7.297 17.635h.011v.011c-42.302 56.455 100.781 178.464 141.491 211.39l56.576 12.416 87.568-74.863 4.445-104.263-57.98-92.178-142.475-74.565c-9.742-9.741-25.542-9.741-35.282 0z" fill="#ffddce"/><path d="m238.27 434.45-20.2 20.2c-9.5-7.85-22.16-18.61-36.03-31.24l18.65-18.65c12.05 10.27 24.77 20.27 37.58 29.69z" fill="#a55e4d"/><path d="m87.312 238.347c-42.302 56.455 100.781 178.464 141.491 211.39l30.814-13.345c-69.524-47.941-143.481-117.321-132.458-158.208z" fill="#ffcbbe"/><path d="m392.498 256.071c-5.871 13.738-28.28 58.16-81.546 84.97-8.447 4.261-18.042 4.325-26.284.848v-.011c-4.604-1.932-8.79-4.98-12.106-9.026l-.032-.032c-.333-.408-.655-.826-.955-1.245-4.143-5.592-6.171-12.171-6.171-18.718 0-8.007 3.037-15.949 8.983-22.023 12.139-12.375 26.413-29.375 31.747-45.356l-129.201-129.2c-3.241-3.231-7.148-5.399-11.291-6.483.343-.633 12.611-23.225 42.158-43.51h.011c9.23 4.508 19.823 2.587 30.792-1.009 18.235-5.967 37.489-16.56 53.18-9.874 18.739 7.985 28.184 60.586 47.234 67.841 6.805 8.146 34.645 43.081 47.964 85.4 3.939 12.514 6.622 25.683 7.094 38.992.108 2.898-.439 5.774-1.577 8.436z" fill="#b46e59"/><path d="m207.806 66.285h-.011c-29.543 20.289-41.805 42.877-42.148 43.508 4.135 1.084 8.049 3.251 11.289 6.49l78.369 78.369c-27.575-27.575-39.361-87.236-19.061-114.822 2.709-3.693 3.328-8.679 2.355-14.55-10.968 3.593-21.561 5.516-30.793 1.005z" fill="#a55e4d"/><path d="m147.419 111.98c-2.067 1.117-4.014 2.554-5.76 4.301-4.876 4.876-7.309 11.256-7.309 17.635 0 6.391 2.433 12.781 7.309 17.646l82.415 82.413c6.484-3.608 7.715-12.418 2.468-17.665l-74.821-74.81c-4.876-4.865-7.308-11.255-7.308-17.646-.001-4.09.994-8.181 3.006-11.874z" fill="#ffcbbe"/><path d="m93.828 198.354c-2.355 1.183-4.555 2.742-6.512 4.699-4.865 4.865-7.308 11.256-7.308 17.646 0 6.38 2.443 12.759 7.308 17.635l67.003 66.992c5.097-8.004 3.949-18.474-2.76-25.183l-53.031-53.031c-4.865-4.865-7.308-11.256-7.308-17.635-.001-3.815.872-7.63 2.608-11.123z" fill="#ffcbbe"/><path d="m111.828 147.449c-1.957 1.084-3.792 2.466-5.451 4.124-4.865 4.876-7.309 11.256-7.309 17.635 0 6.391 2.443 12.781 7.309 17.646l75.377 75.363c4.964-5.832 4.616-14.5-.8-19.916l-48.794-48.791-16.22-16.209c-4.876-4.876-7.308-11.256-7.308-17.646.001-4.212 1.062-8.424 3.196-12.206z" fill="#ffcbbe"/><path d="m284.667 341.878c-4.604-1.932-8.79-4.98-12.106-9.026l-.032-.032c-.333-.408-.655-.826-.955-1.245-4.143-5.592-6.171-12.171-6.171-18.718 0-8.007 3.037-15.949 8.983-22.023 12.139-12.375 26.413-29.375 31.747-45.356l15.09 11.559c0-.001-55.392 51.902-36.556 84.841z" fill="#a55e4d"/><path d="m195.645 376.174c-9.287-9.287-24.345-9.287-33.633 0 9.287-9.287 9.287-24.345 0-33.633-9.287-9.287-24.345-9.287-33.633 0l2.755-2.755c9.287-9.287 9.287-24.345 0-33.633-9.287-9.287-24.345-9.287-33.633 0l-10.44 10.44c-9.287 9.287-9.287 24.345 0 33.633 9.287 9.287 24.345 9.287 33.632 0l-2.755 2.755c-9.287 9.287-9.287 24.345 0 33.633 9.287 9.287 24.345 9.287 33.633 0-9.287 9.287-9.287 24.345 0 33.633 9.287 9.287 24.345 9.287 33.633 0l10.44-10.44c9.289-9.288 9.289-24.346.001-33.633z" fill="#b46e59"/><g fill="#a55e4d"><path d="m135.384 311.922c-8.967-4.703-20.315-3.293-27.872 4.252l-10.436 10.448c-7.546 7.545-8.955 18.893-4.253 27.861-2.073-1.09-4.027-2.511-5.769-4.253-9.287-9.287-9.287-24.342 0-33.629l10.448-10.448c9.287-9.287 24.342-9.287 33.629 0 1.742 1.742 3.164 3.696 4.253 5.769z"/><path d="m166.262 348.31c-8.967-4.703-20.315-3.293-27.872 4.252l-10.436 10.448c-7.546 7.545-8.955 18.893-4.253 27.861-2.073-1.09-4.027-2.511-5.769-4.253-9.287-9.287-9.287-24.342 0-33.629l10.448-10.448c9.287-9.287 24.342-9.287 33.629 0 1.742 1.741 3.163 3.696 4.253 5.769z"/><path d="m199.894 381.942c-8.967-4.703-20.315-3.293-27.872 4.252l-10.436 10.448c-7.546 7.545-8.955 18.893-4.253 27.861-2.073-1.09-4.027-2.511-5.769-4.253-9.287-9.287-9.287-24.342 0-33.629l10.448-10.448c9.287-9.287 24.342-9.287 33.629 0 1.742 1.742 3.164 3.696 4.253 5.769z"/></g><path d="m375.2 29.39-36.18 93.85-102.37-44.43-28.85-12.52 20.76-64.83c9.02-.97 18.17-1.46 27.44-1.46 43.04 0 83.6 10.62 119.2 29.39z" fill="#634086"/><path d="m268.15.29-31.5 78.52-28.85-12.52 20.76-64.83c9.02-.97 18.17-1.46 27.44-1.46 4.07 0 8.12.1 12.15.29z" fill="#543673"/><path d="m372.94 387.29v96.49c-35.05 18.04-74.81 28.22-116.94 28.22-9.19 0-18.26-.48-27.2-1.43v-60.83l36.6-15.85z" fill="#ffddce"/><path d="m262.46 511.91c-2.15.06-4.3.09-6.46.09-9.19 0-18.26-.48-27.2-1.43v-60.83l30.82-13.35z" fill="#ffcbbe"/></g></g></svg>