<svg height="512" viewBox="0 0 59 59" width="512" xmlns="http://www.w3.org/2000/svg"><g id="007---Retirement-Finance" fill="none" transform="translate(-1)"><path id="Path" d="m42 30c-.0027035 2.6727872.1441929 5.3436309.44 8h-27.94c-1.3807119 0-2.5-1.1192881-2.5-2.5s1.1192881-2.5 2.5-2.5h22.5v-2.95c0-.35.18-5.05.18-5.05.53-7.61 2.28-14.45 4.95-19.46.6563897-1.19509407 2.0401686-1.79226058 3.36-1.45l2.05.51c-2.91 5.12-4.81 12.33-5.36 20.4 0 0-.18 4.66-.18 5z" fill="#f2a149"/><circle id="Oval" cx="15" cy="14" fill="#fdcd56" r="13"/><path id="Rectangle" d="m27 27h4v13h-4z" fill="#937661"/><path id="Path" d="m45 42h-27c.269-1.3.5-2.63.679-4h25.63c.191 1.37.41 2.7.691 4z" fill="#a38671"/><path id="Path" d="m21 28v2c0 1.01-.02 2.01-.07 3-.06 1.7-.19 3.38-.38 5-.15 1.37-.35 2.7-.58 4-.652759 3.9137599-1.8125146 7.7258262-3.45 11.34-.7015572.5808789-1.6237715.8224112-2.52.66-.818-.225-2-1-1.37-1.78 2.0698934-4.4938058 3.3842087-9.298321 3.89-14.22.2-1.63.34-3.29.41-5 .05-.99.07-1.99.07-3v-2z" fill="#937661"/><path id="Path" d="m44 25c-.1 1.31-.15 2.64-.17 4h-29.83c-.8279376-.0088533-1.5677024-.5191723-1.87-1.29-.0843801-.2272818-.1283758-.4675657-.13-.71-.0003856-.1140109.0096562-.2278182.03-.34.057685-.3428453.2061651-.6639767.43-.93.3799248-.4593501.9439007-.7266892 1.54-.73z" fill="#a38671"/><path id="Path" d="m52.57 4.24c-4.05 5.16-6.57 15.03-6.57 25.76 0 8.47 1.57 16.41 4.22 21.91.78 1.09-.804 1.951-1.22 2.09-.9715962.2928906-2.0222041-.0599853-2.62-.88-1.5831582-3.5498117-2.7088399-7.2864029-3.35-11.12-.24-1.3-.43-2.63-.59-4-.2958071-2.6563691-.4427035-5.3272128-.44-8 0-.34 0-.67.01-1 .02-1.36.07-2.69.17-4 .55-8.07 2.45-15.28 5.36-20.4.5575173-.99295092 1.1893184-1.94232392 1.89-2.84.4430093-.560907 1.1516071-.84286378 1.8588715-.73965993.7072644.10320384 1.305745.57588918 1.57 1.24000002.2642551.66411084.1541379 1.41875294-.2888715 1.97965991z" fill="#937661"/><path id="Path" d="m60 50c.0020366.6124641-.2783475 1.1916784-.76 1.57-5.93 4.65-16.48 7.43-28.24 7.43s-22.31-2.78-28.24-7.43c-.560907-.4430093-.84286378-1.1516071-.73965993-1.8588715.10320384-.7072644.57588918-1.305745 1.24000002-1.57.66411084-.2642551 1.41875294-.1541379 1.97965991.2888715 2.23768525 1.6618796 4.73467053 2.9424715 7.39 3.79 1.22.42 2.53.8 3.89 1.12 4.7427297 1.1314566 9.604259 1.6887866 14.48 1.66 5.1858775.03205 10.3545338-.5997494 15.38-1.88 1.3002387-.336045 2.5819928-.7399311 3.84-1.21 2.3458384-.8171196 4.5517307-1.9908971 6.54-3.48.6016239-.4754092 1.4220948-.5649958 2.1121383-.2306229s1.1281671 1.033834 1.1278617 1.8006229z" fill="#a38671"/><g fill="#fab153"><path id="Shape" d="m16 13.1v-5.916c1.1943509.42225455 1.9947486 1.54921457 2 2.816 0 .5522847.4477153 1 1 1s1-.4477153 1-1c-.0029983-2.37510083-1.6735832-4.42156735-4-4.9v-.1c0-.55228475-.4477153-1-1-1s-1 .44771525-1 1v.1c-2.330324.47319247-4.00501256 2.52211839-4.00501256 4.9 0 2.3778816 1.67468856 4.4268075 4.00501256 4.9v5.917c-1.1946951-.4223781-1.9951701-1.5498471-2-2.817 0-.5522847-.4477153-1-1-1s-1 .4477153-1 1c.0029983 2.3751008 1.6735832 4.4215673 4 4.9v.1c0 .5522847.4477153 1 1 1s1-.4477153 1-1v-.1c2.330324-.4731925 4.0050126-2.5221184 4.0050126-4.9s-1.6746886-4.4268075-4.0050126-4.9zm-4-3.1c.0052514-1.26678543.8056491-2.39374545 2-2.816v5.632c-1.1943509-.4222546-1.9947486-1.5492146-2-2.816zm4 10.816v-5.632c1.1981296.4174114 2.0009455 1.5472421 2.0009455 2.816s-.8028159 2.3985886-2.0009455 2.816z"/><path id="Path" d="m29 14c-.0005358 4.2934465-1.9729066 8.3487884-5.35 11h-3.85c5.4135653-2.3627442 8.3026625-8.3136686 6.8108443-14.0288875-1.4918182-5.71521902-6.9208516-9.49489878-12.7985662-8.91033043-5.87771467.58456835-10.45594681 5.35952112-10.79286175 11.25661683-.33691494 5.8970957 3.66769335 11.1624063 9.44058365 12.4126011-.4636234.5500767-.5901594 1.3092929-.33 1.98-7.20114486-1.5082684-12.00614878-8.33317-10.99792416-15.6211631 1.00822463-7.28799311 7.48562545-12.55208115 14.82578666-12.04869794 7.3401611.50338321 13.0382839 6.60246028 13.0421375 13.95986104z"/></g></g></svg>