<svg height="512" viewBox="0 0 58 58" width="512" xmlns="http://www.w3.org/2000/svg"><g id="Page-1" fill="none" fill-rule="evenodd"><g id="023---House-Finance-Documents"><path id="Path" d="m32 58h-26c-1.10320187-.0032948-1.9967052-.8967981-2-2v-2l26-3z" fill="#e57e25"/><path id="Path" d="m42 12v8l-6 1 2-11h2c1.1032019.0032948 1.9967052.8967981 2 2z" fill="#e57e25"/><path id="Path" d="m30 54h-28c-1.10320187-.0032948-1.9967052-.8967981-2-2v-44c.0032948-1.10320187.89679813-1.9967052 2-2h34c1.1032019.0032948 1.9967052.89679813 2 2v12z" fill="#f29c1f"/><path id="Path" d="m31 6v3c0 .55228475-.4477153 1-1 1h-22c-.55228475 0-1-.44771525-1-1v-3c.0032948-1.10320187.89679813-1.9967052 2-2h2v-2c.0032948-1.10320187.8967981-1.9967052 2-2h12c1.1032019.0032948 1.9967052.89679813 2 2v2h2c1.1032019.0032948 1.9967052.89679813 2 2z" fill="#bdc3c7"/><path id="Path" d="m21 6h-4c-.5522847 0-1-.44771525-1-1s.4477153-1 1-1h4c.5522847 0 1 .44771525 1 1s-.4477153 1-1 1z" fill="#7f8c8d"/><path id="Path" d="m26 44h-22c-.55228475 0-1-.4477153-1-1s.44771525-1 1-1h22c.5522847 0 1 .4477153 1 1s-.4477153 1-1 1z" fill="#f9eab0"/><path id="Path" d="m15 48h-11c-.55228475 0-1-.4477153-1-1s.44771525-1 1-1h11c.5522847 0 1 .4477153 1 1s-.4477153 1-1 1z" fill="#f9eab0"/><rect id="Rectangle" fill="#4482c3" height="38" rx="2" width="28" x="30" y="20"/><path id="Rectangle" d="m34 24h20v6h-20z" fill="#285680"/><g fill="#f0c419"><rect id="Rectangle" height="4" rx="1" width="4" x="34" y="34"/><rect id="Rectangle" height="4" rx="1" width="4" x="34" y="42"/><rect id="Rectangle" height="4" rx="1" width="4" x="34" y="50"/><rect id="Rectangle" height="4" rx="1" width="4" x="42" y="34"/><rect id="Rectangle" height="4" rx="1" width="4" x="42" y="42"/><rect id="Rectangle" height="4" rx="1" width="4" x="42" y="50"/><rect id="Rectangle" height="4" rx="1" width="4" x="50" y="34"/></g><rect id="Rectangle" fill="#f29c1f" height="12" rx="1" width="4" x="50" y="42"/><path id="Path" d="m24 16v7l-4-3.23v-3.77c0-.5522847.4477153-1 1-1h2c.5522847 0 1 .4477153 1 1z" fill="#c03a2b"/><path id="Path" d="m8 39c-1.10320187-.0032948-1.9967052-.8967981-2-2v-11.87l9-7.13 9 7.13v11.87c-.0032948 1.1032019-.8967981 1.9967052-2 2z" fill="#ecf0f1"/><path id="Path" d="m26.769 25.09-1.28 1.54c-.3545907.4286664-.9885244.4911669-1.42.14l-.069-.06-9-7.13-9 7.13-.07.06c-.43147563.3511669-1.06540935.2886664-1.42-.14l-1.28-1.54c-.17100031-.2044728-.25251801-.4691598-.22618131-.7344081.02633671-.2652482.15831162-.5087374.36618131-.6755919l10.99-8.89c.373969-.2998956.906031-.2998956 1.28 0l4.36 3.53 4 3.23 2.63 2.13c.2077216.1669999.3395039.4105625.3656519.6758049s-.0555382.529849-.2266519.7341951z" fill="#e64c3c"/><path id="Path" d="m18 33v6h-6v-6c.0032948-1.1032019.8967981-1.9967052 2-2h2c1.1032019.0032948 1.9967052.8967981 2 2z" fill="#cb8252"/></g></g></svg>