<svg height="512pt" viewBox="-9 0 512 512.001" width="512pt" xmlns="http://www.w3.org/2000/svg"><path d="m407.472656 174.25-73.386718-.003906c-45.066407 22.871094-77.5 86.71875-77.5 161.902344 0 14.496093 1.210937 28.566406 3.480468 42.003906h221.421875c2.269531-13.4375 3.476563-27.511719 3.476563-42.003906 0-75.179688-32.425782-139.023438-77.492188-161.898438zm0 0" fill="#fff2e3"/><path d="m287.492188 336.148438c0-75.183594 32.433593-139.027344 77.5-161.902344h-30.90625c-45.066407 22.871094-77.5 86.71875-77.5 161.902344 0 14.496093 1.210937 28.566406 3.480468 42.003906h30.90625c-2.269531-13.4375-3.480468-27.511719-3.480468-42.003906zm0 0" fill="#fcdfae"/><path d="m449.839844 308.675781c-3.742188-1.929687-7.058594-4.128906-9.511719-7-4.953125-5.789062-7.503906-14.753906-7.503906-22.375v-.105469c-3.960938 2.65625-10.566407 3.859376-16.09375 2.8125v.003907h-.070313c-.339844 15.785156-8.546875 31.167969-20.851562 39.375v22.6875l25.425781 9.421875 13.648437 5.054687c28.78125-6.886719 27.359376-43.480469 14.957032-49.875zm0 0" fill="#495766"/><path d="m324.867188 281.996094h-.003907v.003906c-5.542969 1.0625-12.164062-.136719-16.136719-2.792969v.09375c0 7.621094-2.550781 16.585938-7.503906 22.375-2.449218 2.871094-5.769531 5.070313-9.511718 7-12.398438 6.390625-15.320313 42.957031 13.425781 49.867188l40.503906-14.46875v-22.777344c-13.421875-8.875-20.433594-23.59375-20.773437-39.300781zm0 0" fill="#495766"/><path d="m322.265625 308.675781c2.910156-1.5 5.554687-3.167969 7.742187-5.179687-3.242187-6.574219-4.976562-13.917969-5.140624-21.5h-.003907v.003906c-5.542969 1.0625-12.164062-.136719-16.140625-2.792969v.09375c0 7.621094-2.546875 16.585938-7.5 22.375-2.453125 2.871094-5.769531 5.070313-9.511718 7-12.398438 6.390625-15.320313 42.957031 13.425781 49.867188l17.867187-6.382813c-14.664062-12.867187-10.875-38.257812-.738281-43.484375zm0 0" fill="#3c4957"/><path d="m210.296875 42.125h9.3125c7.378906-4.296875 20.933594-14.242188 20.9375-29.324219 0-7.066406-5.726563-12.7929685-12.792969-12.79687475-4.773437 0-8.933594 2.61718775-11.132812 6.49218775 0 0-.714844.882812-1.660156.882812-.949219 0-1.660157-.882812-1.660157-.882812h-.003906c-2.199219-3.878906-6.355469-6.496094-11.128906-6.496094-7.066407-.00390625-12.796875 5.726562-12.796875 12.789062-.003906 15.085938 13.550781 25.035157 20.925781 29.335938zm0 0" fill="#ff80bd"/><path d="m212.761719 12.789062c0-2.03125.488281-3.945312 1.332031-5.652343-.480469-.261719-.796875-.644531-.796875-.644531-2.199219-3.875-6.355469-6.492188-11.128906-6.492188-7.066407-.00390625-12.796875 5.726562-12.796875 12.789062-.003906 15.085938 13.550781 25.035157 20.925781 29.335938h9.3125c2.019531-1.175781 4.503906-2.777344 7.042969-4.789062-6.742188-5.34375-13.894532-13.589844-13.890625-24.546876zm0 0" fill="#f964b2"/><path d="m203.382812 59.671875c3.691407-.957031 7.5625-1.46875 11.554688-1.46875 3.953125 0 7.785156.5 11.445312 1.4375l5.035157-15.242187c.851562-2.582032-.769531-5.363282-3.128907-5.363282h-26.699218c-2.347656 0-3.972656 2.753906-3.140625 5.332032zm0 0" fill="#dde4f7"/><path d="m217.214844 44.367188c-.832032-2.574219.792968-5.332032 3.140625-5.332032h-18.765625c-2.347656 0-3.972656 2.757813-3.140625 5.332032l4.933593 15.304687c3.691407-.957031 7.5625-1.46875 11.554688-1.46875 2.351562 0 4.65625.199219 6.914062.539063zm0 0" fill="#ccd7f2"/><path d="m96.773438 340.199219 21.433593 6.628906v.003906c1.347657-.960937 2.996094-1.53125 4.78125-1.53125 1.78125 0 3.429688.566407 4.777344 1.527344l22.589844-6.984375c-.003907-.066406-.015625-.128906-.015625-.195312l-.050782-29.351563c-7.574218 5.222656-16.746093 8.292969-26.621093 8.292969-10.339844 0-19.421875-2.835938-26.851563-7.585938v28.617188c0 .195312-.023437.386718-.042968.578125zm0 0" fill="#f0a479"/><path d="m127.953125 318.386719c-1.414063.128906-2.839844.203125-4.285156.203125-10.339844 0-19.421875-2.839844-26.851563-7.585938v28.613282c0 .199218-.023437.390624-.042968.582031l21.433593 6.628906c1.347657-.960937 2.996094-1.53125 4.78125-1.53125 1.78125 0 3.429688.570313 4.777344 1.53125l.1875-.058594zm0 0" fill="#e5966e"/><path d="m120.359375 418.769531c1.484375 1.246094 3.640625 1.265625 5.148437.050781l31.613282-25.523437 9.742187-45.445313-8.746093-2.804687v13.546875c0 4.246094-2.613282 7.277344-6.664063 6.023438l-23.6875-7.328126c-1.347656.964844-2.996094 1.53125-4.777344 1.53125-1.785156 0-3.429687-.570312-4.78125-1.53125l-23.683593 7.324219c-4.054688 1.253907-6.667969-1.773437-6.667969-6.019531v-13.105469l-7.535157 2.339844 9.753907 45.523437zm0 0" fill="#dde4f7"/><path d="m103.835938 361.734375-9.3125 2.878906c-4.054688 1.253907-6.667969-1.773437-6.667969-6.019531v-13.105469l-7.539063 2.339844 9.757813 45.523437 25.039062 21.015626zm0 0" fill="#ccd7f2"/><path d="m120.703125 415.933594-31.453125-23.808594 28.78125 119.875h11.121094l28.78125-119.875-32.628906 23.851562c-1.347657 1.085938-3.273438 1.066407-4.601563-.042968zm0 0" fill="#63a1fc"/><path d="m114.417969 411.175781-25.167969-19.050781 28.78125 119.875h11.121094l3.28125-13.671875zm0 0" fill="#5294fe"/><path d="m82.75 347.378906c-.050781-.238281-.300781-.375-.527344-.285156l-56.0625 21.734375s-26.160156 10.753906-26.160156 40.574219v87.878906c0 8.128906 6.589844 14.71875 14.71875 14.71875h103.3125zm0 0" fill="#63a1fc"/><path d="m30.84375 497.28125v-104.359375c0-14.320313 6.035156-24.234375 12.304688-30.679687l-16.988282 6.582031s-26.160156 10.757812-26.160156 40.578125v87.878906c0 8.128906 6.589844 14.71875 14.71875 14.71875h30.847656c-8.132812 0-14.722656-6.589844-14.722656-14.71875zm0 0" fill="#4188ff"/><path d="m221.023438 368.824219-56.023438-21.71875c-.246094-.09375-.515625.054687-.574219.3125l-35.273437 164.582031h118.03125v-102.597656c0-29.820313-26.160156-40.578125-26.160156-40.578125zm0 0" fill="#63a1fc"/><path d="m82.75 347.378906c-.050781-.238281-.300781-.375-.527344-.285156l-16.429687 6.367188-4.082031 57.015624c-.207032 2.894532 1.289062 5.644532 3.832031 7.042969l12.308593 6.765625c2.988282 1.644532 4.476563 5.109375 3.605469 8.410156l-5.53125 20.960938c-.410156 1.546875-.304687 3.183594.289063 4.667969l21.558594 53.675781h20.257812zm0 0" fill="#4188ff"/><path d="m165 347.105469c-.246094-.09375-.515625.054687-.574219.3125l-35.273437 164.582031h20.257812l21.558594-53.679688c.597656-1.480468.695312-3.117187.289062-4.664062l-5.53125-20.964844c-.871093-3.296875.617188-6.761718 3.605469-8.40625l12.308594-6.765625c2.542969-1.398437 4.039063-4.148437 3.832031-7.042969l-4.082031-57.015624zm0 0" fill="#4188ff"/><path d="m93.34375 453.65625 5.53125-20.960938c.871094-3.296874-.613281-6.765624-3.601562-8.410156l-12.3125-6.765625c-2.542969-1.398437-4.039063-4.148437-3.832032-7.042969l4.082032-57.015624.777343-.300782-1.242187-5.78125c-.050782-.238281-.300782-.375-.527344-.285156l-16.425781 6.367188-4.082031 57.015624c-.207032 2.894532 1.289062 5.644532 3.832031 7.042969l12.308593 6.765625c2.988282 1.644532 4.472657 5.109375 3.605469 8.410156l-5.53125 20.960938c-.410156 1.546875-.308593 3.183594.289063 4.667969l21.558594 53.675781h17.421874l-21.5625-53.679688c-.59375-1.480468-.695312-3.117187-.289062-4.664062zm0 0" fill="#2479e0"/><path d="m165 347.105469c-.246094-.09375-.515625.054687-.574219.3125l-35.273437 164.582031h17.417968l34.042969-158.839844zm0 0" fill="#2479e0"/><path d="m468.207031 368.84375-68.441406-25.359375c-1.472656-.546875-2.445313-1.949219-2.445313-3.515625v-20.078125c-17.054687 11.375-38.558593 9.558594-53.164062-.09375v20.171875c0 1.566406-.976562 2.96875-2.445312 3.515625l-68.367188 25.359375s-26.160156 10.753906-26.160156 40.578125v102.578125h232.464844c8.128906 0 14.71875-6.589844 14.71875-14.71875v-87.859375c0-29.824219-26.160157-40.578125-26.160157-40.578125zm0 0" fill="#f7b594"/><path d="m289.734375 362.761719-16.390625 6.082031s-26.160156 10.753906-26.160156 40.578125v102.578125h30.90625v-116.492188c0-13.816406 5.617187-24.863281 11.644531-32.746093zm0 0" fill="#f0a479"/><path d="m372.617188 338.332031c1.472656-.542969 2.445312-1.945312 2.445312-3.515625v-7.230468c-11.148438.90625-22.242188-2.0625-30.90625-7.789063v20.171875c0 1.152344-.53125 2.214844-1.394531 2.914062zm0 0" fill="#f0a479"/><path d="m410.105469 439.351562c-14.65625 0-27.554688 7.835938-35.078125 19.714844-2.003906 3.167969-6.582032 3.167969-8.585938 0-7.523437-11.878906-20.421875-19.714844-35.078125-19.714844-18.332031 0-33.914062 12.265626-39.664062 29.367188v43.28125h158.152343v-43.03125c-5.683593-17.230469-21.324218-29.617188-39.746093-29.617188zm0 0" fill="#fcdfae"/><path d="m350.695312 444.285156c-5.789062-3.140625-12.355468-4.933594-19.332031-4.933594-18.332031 0-33.914062 12.265626-39.664062 29.367188v43.28125h38.308593v-32.199219c0-15.105469 8.292969-28.585937 20.6875-35.515625zm0 0" fill="#fdd075"/><path d="m52.242188 512v-64.78125c0-4.265625-3.460938-7.726562-7.726563-7.726562-4.269531 0-7.726563 3.460937-7.726563 7.726562v64.78125zm0 0" fill="#4188ff"/><path d="m210.398438 512v-64.78125c0-4.265625-3.460938-7.726562-7.730469-7.726562-4.265625 0-7.726563 3.460937-7.726563 7.726562v64.78125zm0 0" fill="#4188ff"/><path d="m299.425781 512v-64.78125c0-4.265625-3.460937-7.726562-7.726562-7.726562-4.269531 0-7.730469 3.460937-7.730469 7.726562v64.78125zm0 0" fill="#f0a479"/><path d="m457.578125 512v-64.78125c0-4.265625-3.457031-7.726562-7.726563-7.726562-4.265624 0-7.726562 3.460937-7.726562 7.726562v64.78125zm0 0" fill="#f0a479"/><path d="m377 401.382812c-2.855469-3.171874-2.59375-8.058593.578125-10.910156 11.007813-9.898437 22.328125-33.203125 30.957031-45.15625 2.496094-3.457031 7.324219-4.242187 10.789063-1.742187 3.457031 2.496093 4.238281 7.324219 1.742187 10.785156-8.371094 11.605469-19.867187 35.652344-33.15625 47.605469-3.195312 2.871094-8.078125 2.574218-10.910156-.582032zm0 0" fill="#fec13b"/><path d="m353.339844 401.730469c-13.160156-11.996094-24.597656-35.835938-32.902344-47.320313-2.492188-3.449218-1.742188-8.292968 1.699219-10.796875 3.445312-2.507812 8.25-1.773437 10.765625 1.660157l.03125.042968c8.664062 11.988282 19.855468 34.996094 30.816406 44.996094 3.15625 2.875 3.378906 7.761719.503906 10.917969-2.878906 3.15625-7.765625 3.375-10.914062.5zm0 0" fill="#fec13b"/><path d="m381.277344 391.078125c-3.917969 0-7.332032 2.148437-9.136719 5.328125 0 0-.585937.722656-1.363281.722656s-1.363282-.722656-1.363282-.722656h-.003906c-1.800781-3.179688-5.214844-5.332031-9.132812-5.332031-5.800782 0-10.5 4.699219-10.5 10.5-.003906 14.050781 14.335937 22.679687 19.3125 25.253906 1.054687.542969 2.304687.542969 3.359375 0 4.976562-2.570313 19.324219-11.195313 19.328125-25.246094 0-5.800781-4.699219-10.5-10.5-10.503906zm0 0" fill="#ff80bd"/><path d="m370.777344 399.511719c0-.832031.105468-1.640625.289062-2.414063-.09375.019532-.1875.03125-.289062.03125-.777344 0-1.363282-.722656-1.363282-.722656h-.003906c-1.800781-3.179688-5.214844-5.332031-9.132812-5.332031-5.800782 0-10.5 4.699219-10.5 10.5-.003906 14.050781 14.335937 22.679687 19.3125 25.253906 1.054687.542969 2.304687.542969 3.359375 0 2.203125-1.136719 6.238281-3.460937 10.054687-6.914063-5.625-4.375-11.730468-11.234374-11.726562-20.402343zm0 0" fill="#f964b2"/><path d="m214.9375 160.949219c-29.605469 0-53.691406-24.085938-53.691406-53.6875 0-29.605469 24.085937-53.695313 53.691406-53.695313s53.691406 24.085938 53.691406 53.695313c0 29.605469-24.085937 53.6875-53.691406 53.6875zm0-91.929688c-21.085938 0-38.238281 17.15625-38.238281 38.238281 0 21.085938 17.152343 38.238282 38.238281 38.238282s38.238281-17.152344 38.238281-38.238282c0-21.082031-17.152343-38.238281-38.238281-38.238281zm0 0" fill="#fec13b"/><path d="m279.429688 160.949219c-29.605469 0-53.691407-24.085938-53.691407-53.6875 0-29.605469 24.085938-53.695313 53.691407-53.695313 29.605468 0 53.691406 24.085938 53.691406 53.695313 0 29.605469-24.085938 53.6875-53.691406 53.6875zm0-91.929688c-21.085938 0-38.238282 17.15625-38.238282 38.238281 0 21.085938 17.152344 38.238282 38.238282 38.238282 21.082031 0 38.238281-17.152344 38.238281-38.238282 0-21.082031-17.15625-38.238281-38.238281-38.238281zm0 0" fill="#fcb237"/><path d="m417.464844 247.757812v34.730469c0 .339844-.019532.671875-.027344 1.007813 12.390625 2.375 23.460938-6.527344 23.460938-17.867188 0-11.328125-11.054688-20.226562-23.433594-17.871094zm0 0" fill="#f0a479"/><path d="m435.796875 253.335938c-4.386719-4.507813-11.132813-6.949219-18.332031-5.578126v34.730469c0 .339844-.019532.671875-.027344 1.007813 7.210938 1.382812 13.964844-1.058594 18.359375-5.570313zm0 0" fill="#e5966e"/><path d="m324.085938 247.757812v34.730469c0 .339844.019531.671875.027343 1.007813-12.390625 2.375-23.460937-6.527344-23.460937-17.867188 0-11.328125 11.054687-20.226562 23.433594-17.871094zm0 0" fill="#f0a479"/><path d="m324.085938 277.925781c-3.15625-3.242187-5.097657-7.554687-5.097657-12.296875 0-4.738281 1.941407-9.050781 5.097657-12.292968v-5.578126c-12.378907-2.355468-23.433594 6.542969-23.433594 17.871094 0 11.339844 11.070312 20.242188 23.460937 17.867188-.007812-.335938-.027343-.667969-.027343-1.007813zm0 0" fill="#e5966e"/><path d="m418.1875 246.261719v35.765625c0 25.808594-21.117188 47.285156-46.925781 47.195312-28.851563-.09375-47.898438-22.367187-47.898438-46.734375v-36.226562h20.054688c15.109375 0 27.359375-12.25 27.359375-27.359375 0 15.109375 12.246094 27.359375 27.355468 27.359375zm0 0" fill="#f7b594"/><path d="m353.921875 282.488281v-38.320312c-3.234375 1.347656-6.78125 2.09375-10.5 2.09375h-20.058594v36.226562c0 24.367188 19.046875 46.640625 47.898438 46.734375 5.199219.019532 10.199219-.851562 14.882812-2.441406-19.871093-6.421875-32.222656-24.675781-32.222656-44.292969zm0 0" fill="#f0a479"/><path d="m370.285156 162.984375c-36.042968.265625-64.878906 30.144531-64.878906 66.191406v24.515625c4.394531-3.578125 10.605469-6.957031 17.933594-5.933594h20.078125c12.882812 0 23.675781-8.902343 26.582031-20.890624.089844-.359376.40625-.617188.777344-.617188s.6875.257812.773437.617188c2.90625 11.988281 13.703125 20.890624 26.582031 20.890624h20.078126c7.46875-1.0625 13.835937 2.203126 17.9375 5.933594 0-10.285156 0-21.667968 0-25.335937 0-36.265625-29.53125-65.636719-65.863282-65.371094zm0 0" fill="#495766"/><path d="m335.964844 229.175781c0-30.976562 21.296875-57.378906 50.160156-64.367187-5.074219-1.222656-10.378906-1.863282-15.839844-1.824219-36.046875.261719-64.878906 30.140625-64.878906 66.1875v24.519531c4.394531-3.578125 10.605469-6.957031 17.933594-5.933594h12.625zm0 0" fill="#3c4957"/><path d="m76.027344 238.542969h-6.617188c-1.082031 0-2.128906-.136719-3.136718-.367188-7.261719 2.519531-13.066407 9.804688-13.066407 17.855469 0 10.980469 10.433594 19.953125 22.847657 18.074219-.011719-.378907-.027344-.753907-.027344-1.132813zm0 0" fill="#f0a479"/><path d="m76.027344 270.230469c-4.414063-3.382813-7.207032-8.519531-7.207032-14.199219 0-5.707031 2.921876-11.019531 7.207032-14.53125v-2.957031h-6.617188c-1.082031 0-2.128906-.136719-3.136718-.367188-7.261719 2.519531-13.066407 9.804688-13.066407 17.855469 0 10.980469 10.433594 19.953125 22.847657 18.074219-.011719-.378907-.027344-.753907-.027344-1.132813zm0 0" fill="#e5966e"/><path d="m178.335938 237.472656c-1.261719.679688-2.703126 1.070313-4.230469 1.070313-1.214844 0-3.144531-.132813-4.289063-.371094v34.800781c0 .378906-.019531.753906-.027344 1.132813 12.390626 1.875 22.847657-7.078125 22.847657-18.074219 0-8.570312-5.875-16.609375-14.300781-18.558594zm0 0" fill="#f0a479"/><path d="m185.429688 240.949219c-2.042969-1.644531-4.441407-2.863281-7.09375-3.476563-1.261719.679688-2.703126 1.066406-4.230469 1.066406-1.214844 0-3.144531-.128906-4.289063-.371093v34.804687c0 .378906-.019531.753906-.027344 1.132813 5.988282.90625 11.515626-.722657 15.636719-3.878907v-29.277343zm0 0" fill="#e5966e"/><path d="m156.996094 219.089844h-2.3125c-5.753906 9.839844-16.40625 16.460937-28.628906 16.460937h-50.777344v37.421875c0 24.546875 19.230468 46.964844 48.324218 46.964844 25.894532 0 46.964844-21.070312 46.964844-46.964844v-37.792968c-7.527344-1.601563-13.265625-8.175782-13.570312-16.089844zm0 0" fill="#f7b594"/><path d="m106.117188 272.972656v-37.421875h-30.839844v37.421875c0 24.542969 19.230468 46.960938 48.324218 46.960938 5.21875 0 10.234376-.867188 14.929688-2.445313-19.980469-6.445312-32.414062-24.789062-32.414062-44.515625zm0 0" fill="#f0a479"/><path d="m167.515625 177.46875c-4.488281.34375-8.605469-2.476562-9.46875-6.894531-1.453125-7.4375-5.136719-14.820313-19.523437-14.820313h-49.910157c-18.320312 0-33.167969 14.851563-33.167969 33.167969v36.402344c0 7.714843 6.25 13.964843 13.964844 13.964843h56.648438c12.671875 0 23.675781-7.105468 29.257812-17.550781.433594-.808593 1.664063-.492187 1.664063.425781 0 9.421876 7.707031 17.128907 17.128906 17.128907 4.9375 0 8.976563-4.039063 8.976563-8.980469v-37.984375c-.003907-8.949219-7.808594-15.457031-15.570313-14.859375zm0 0" fill="#495766"/><path d="m86.074219 225.324219v-36.398438c0-18.320312 14.847656-33.167969 33.167969-33.167969h-30.628907c-18.320312 0-33.167969 14.847657-33.167969 33.167969v36.398438c0 7.714843 6.25 13.964843 13.964844 13.964843h30.628906c-7.710937 0-13.964843-6.25-13.964843-13.964843zm0 0" fill="#3c4957"/><path d="m151.449219 338.03125-23.683594 7.324219c2.101563 1.496093 3.480469 3.949219 3.480469 6.726562 0 2.777344-1.378906 5.230469-3.480469 6.730469l23.683594 7.324219c4.054687 1.253906 8.164062-1.777344 8.164062-6.023438v-16.0625c.003907-4.242187-4.109375-7.273437-8.164062-6.019531zm0 0" fill="#ff80bd"/><path d="m127.765625 358.8125 16.679687 5.15625c3.464844-2.800781 5.691407-7.078125 5.691407-11.882812 0-4.808594-2.226563-9.085938-5.691407-11.886719l-16.679687 5.15625c2.105469 1.496093 3.480469 3.949219 3.480469 6.730469 0 2.777343-1.375 5.230468-3.480469 6.726562zm0 0" fill="#f964b2"/><path d="m114.726562 352.082031c0-2.777343 1.375-5.230469 3.480469-6.726562l-23.683593-7.324219c-4.054688-1.253906-8.164063 1.777344-8.164063 6.019531v16.0625c0 4.246094 4.109375 7.277344 8.164063 6.023438l23.683593-7.324219c-2.105469-1.496094-3.480469-3.949219-3.480469-6.730469zm0 0" fill="#ff80bd"/><path d="m102.28125 360.113281v-16.0625c0-1.238281.359375-2.371093.957031-3.324219l-8.714843-2.695312c-4.054688-1.253906-8.164063 1.777344-8.164063 6.019531v16.0625c0 4.246094 4.109375 7.277344 8.164063 6.023438l8.714843-2.695313c-.597656-.957031-.957031-2.085937-.957031-3.328125zm0 0" fill="#f964b2"/><path d="m131.488281 352.105469c0 4.695312-3.808593 8.5-8.5 8.5-4.695312 0-8.5-3.804688-8.5-8.5 0-4.691407 3.804688-8.5 8.5-8.5 4.691407 0 8.5 3.808593 8.5 8.5zm0 0" fill="#ff80bd"/><path d="m124.199219 352.105469c0-2.886719 1.441406-5.433594 3.644531-6.96875-1.378906-.960938-3.050781-1.53125-4.855469-1.53125-4.695312 0-8.5 3.804687-8.5 8.5 0 4.695312 3.804688 8.5 8.5 8.5 1.804688 0 3.476563-.566407 4.855469-1.527344-2.203125-1.535156-3.644531-4.082031-3.644531-6.972656zm0 0" fill="#f964b2"/></svg>